<svg xmlns="http://www.w3.org/2000/svg" xmlns:xlink="http://www.w3.org/1999/xlink" width="100" height="100" fill-rule="nonzero" viewBox="0 0 256 256"><g fill="none" fill-rule="nonzero" stroke="none" stroke-dashoffset="0" stroke-linecap="butt" stroke-linejoin="miter" stroke-miterlimit="10" stroke-width="1" font-family="none" font-size="none" font-weight="none" text-anchor="none" style="mix-blend-mode:normal"><g transform="scale(2.56,2.56)"><path fill="#1d1d1b" d="M9.314,54.617c6.168,7.84 14.296,17.962 17.991,21.656c2.754,2.754 8.003,6.862 13.523,9.831c2.589,1.393 4.938,2.377 7.095,2.966c0.543,1.786 1.516,3.438 2.863,4.785l2.829,2.827c2.172,2.173 5.06,3.369 8.131,3.369c3.071,0 5.959,-1.196 8.131,-3.368l6.898,-6.898l15.997,-10.409c5.314,-3.458 6.826,-10.595 3.367,-15.911l-2.185,-3.356c-0.225,-0.345 -0.466,-0.676 -0.714,-0.98c-0.491,-0.606 -1.034,-1.155 -1.627,-1.643c0.496,-2.049 0.785,-4.33 0.866,-6.826c0.015,-0.427 0.021,-0.843 0.022,-1.23c0.002,-0.396 -0.001,-0.779 -0.009,-1.144c-0.008,-0.362 -0.019,-0.706 -0.033,-1.021c-0.066,-1.556 -0.192,-2.646 -0.224,-2.889l-0.892,-7.838l0.953,-4.503c0.567,-2.681 0.346,-5.426 -0.625,-7.731c-0.371,-0.88 -0.846,-1.684 -1.412,-2.389c-0.396,-0.494 -0.841,-0.944 -1.323,-1.341c-1.535,-1.26 -3.39,-1.938 -5.359,-1.958l-0.154,-0.001c-2.81,0 -5.715,0.884 -8.179,2.488c-0.593,0.385 -1.146,0.805 -1.652,1.25c-1.538,-1.155 -3.335,-1.763 -5.22,-1.763c-0.485,0 -0.973,0.042 -1.453,0.125l-8.597,-13.215c-2.037,-3.13 -5.486,-5 -9.229,-5c-2.132,0 -4.204,0.616 -5.982,1.774c-0.006,0.003 -0.012,0.007 -0.018,0.011c-0.652,-0.27 -1.331,-0.481 -2.027,-0.628c-0.788,-0.167 -1.593,-0.251 -2.394,-0.251c-2.223,0 -4.388,0.645 -6.262,1.866c-0.469,0.305 -0.917,0.649 -1.391,1.072l-0.116,0.1l-0.09,0.085c-0.403,0.379 -0.79,0.802 -1.147,1.256l-0.154,0.197c-0.333,0.442 -0.639,0.915 -0.93,1.448l-0.079,0.149c-0.241,0.463 -0.45,0.937 -0.622,1.41l-0.053,0.126l-0.056,0.188c-0.17,0.515 -0.303,1.042 -0.397,1.575c-0.492,0.22 -0.962,0.471 -1.389,0.744c-0.118,0.075 -0.233,0.155 -0.309,0.209c-0.585,0.401 -1.093,0.818 -1.555,1.28c-0.004,0.003 -0.007,0.006 -0.01,0.009c-0.692,-0.13 -1.399,-0.196 -2.111,-0.196c-3.073,0 -5.962,1.197 -8.132,3.368c-2.779,2.778 -3.862,6.632 -3.181,10.252c-0.001,0 -0.001,0.001 -0.001,0.001c-2.076,2.076 -3.22,4.838 -3.22,7.778c0,1.969 0.513,3.858 1.476,5.515c-2.658,3.814 -2.591,9.016 0.371,12.779z" opacity=".35"/><path fill="#f2f2f2" d="M7.314,52.617c6.168,7.84 14.296,17.962 17.991,21.656c2.754,2.754 8.003,6.862 13.523,9.831c2.589,1.393 4.938,2.377 7.095,2.966c0.543,1.786 1.516,3.438 2.863,4.785l2.829,2.827c2.172,2.173 5.06,3.369 8.131,3.369c3.071,0 5.959,-1.196 8.131,-3.368l6.898,-6.898l15.997,-10.409c5.314,-3.458 6.826,-10.595 3.367,-15.911l-2.185,-3.356c-0.225,-0.345 -0.466,-0.676 -0.714,-0.98c-0.491,-0.606 -1.034,-1.155 -1.627,-1.643c0.496,-2.049 0.785,-4.33 0.866,-6.826c0.015,-0.427 0.021,-0.843 0.022,-1.23c0.002,-0.396 -0.001,-0.779 -0.009,-1.144c-0.008,-0.362 -0.019,-0.706 -0.033,-1.021c-0.066,-1.556 -0.192,-2.646 -0.224,-2.889l-0.892,-7.838l0.953,-4.503c0.567,-2.681 0.346,-5.426 -0.625,-7.731c-0.371,-0.88 -0.846,-1.684 -1.412,-2.389c-0.396,-0.494 -0.841,-0.944 -1.323,-1.341c-1.535,-1.26 -3.39,-1.938 -5.359,-1.958l-0.154,-0.001c-2.81,0 -5.715,0.884 -8.179,2.488c-0.593,0.385 -1.146,0.805 -1.652,1.25c-1.538,-1.155 -3.335,-1.763 -5.22,-1.763c-0.485,0 -0.973,0.042 -1.453,0.125l-8.597,-13.215c-2.037,-3.13 -5.486,-5 -9.229,-5c-2.132,0 -4.204,0.616 -5.982,1.774c-0.006,0.003 -0.012,0.007 -0.018,0.011c-0.652,-0.27 -1.331,-0.481 -2.027,-0.628c-0.788,-0.167 -1.593,-0.251 -2.394,-0.251c-2.223,0 -4.388,0.645 -6.262,1.866c-0.469,0.305 -0.917,0.649 -1.391,1.072l-0.116,0.1l-0.09,0.085c-0.403,0.379 -0.79,0.802 -1.147,1.256l-0.154,0.197c-0.333,0.442 -0.639,0.915 -0.93,1.448l-0.079,0.149c-0.241,0.463 -0.45,0.937 -0.622,1.41l-0.053,0.126l-0.056,0.188c-0.17,0.515 -0.303,1.042 -0.397,1.575c-0.492,0.22 -0.962,0.471 -1.389,0.744c-0.118,0.075 -0.233,0.155 -0.309,0.209c-0.585,0.401 -1.093,0.818 -1.555,1.28c-0.004,0.003 -0.007,0.006 -0.01,0.009c-0.692,-0.13 -1.399,-0.196 -2.111,-0.196c-3.073,0 -5.962,1.197 -8.132,3.368c-2.779,2.778 -3.862,6.632 -3.181,10.252c-0.001,0 -0.001,0.001 -0.001,0.001c-2.076,2.076 -3.22,4.838 -3.22,7.778c0,1.969 0.513,3.858 1.476,5.515c-2.658,3.814 -2.591,9.016 0.371,12.779z"/><path fill="#f7be36" d="M88.692,65.01l-2.531,-3.89c-1.176,-1.807 -3.318,-2.585 -5.304,-2.13c4.173,-4.875 2.923,-15.88 2.923,-15.88l-1.011,-8.887l1.171,-5.534c0.585,-2.767 -0.402,-5.552 -2.434,-5.574c-2.828,-0.031 -5.476,1.649 -6.413,2.98c-3.1,4.403 -2.887,10.23 -4.856,12.705l-19.362,-29.756c-1.356,-2.083 -4.143,-2.673 -6.226,-1.317c-2.083,1.356 -2.673,4.143 -1.317,6.226l-2.454,-3.772c-1.506,-2.315 -4.603,-2.97 -6.918,-1.464c-2.315,1.506 -2.97,4.603 -1.464,6.918l2.454,3.772c-1.356,-2.083 -4.143,-2.673 -6.226,-1.317c-2.083,1.355 -2.673,4.143 -1.317,6.226l4.223,6.489c-1.278,-1.964 -3.906,-2.52 -5.869,-1.242c-1.8,1.172 -2.443,3.501 -1.493,5.427c3.13,6.348 9.857,19.815 12.737,24.241c3.62,5.562 13.645,17.667 18.962,16.123c-1.014,1.602 -1.08,3.708 0.022,5.401l2.531,3.89c1.506,2.315 4.603,2.97 6.918,1.464l21.792,-14.181c2.313,-1.506 2.969,-4.603 1.462,-6.918z"/><path fill="#ff9dcb" d="M87.229,71.928l-21.792,14.181c-2.315,1.506 -5.412,0.851 -6.918,-1.464l-1.372,-2.109c-1.506,-2.315 -0.851,-5.412 1.464,-6.918l21.792,-14.181c2.315,-1.506 5.412,-0.851 6.918,1.464l1.372,2.109c1.506,2.315 0.85,5.412 -1.464,6.918z"/><circle cx="64.094" cy="79.01" r="2.5" fill="#40396e"/><path fill="#40396e" d="M61.364,88.278c-1.699,-0.359 -3.155,-1.359 -4.102,-2.814l-2.182,-3.352c-1.172,-1.8 -1.335,-3.972 -0.629,-5.843c-0.019,-0.004 -0.037,-0.008 -0.055,-0.012c-2.346,-0.496 -5.158,-2.125 -8.415,-4.88c-4.374,-3.698 -8.371,-8.464 -10.233,-11.326c-2.862,-4.397 -9.264,-17.172 -12.826,-24.396c-1.285,-2.604 -0.416,-5.763 2.02,-7.348c0.832,-0.542 1.754,-0.839 2.679,-0.91l-1.471,-2.262c-1.805,-2.774 -1.017,-6.497 1.756,-8.302c0.909,-0.591 1.936,-0.92 2.992,-0.967c-1.495,-2.925 -0.568,-6.576 2.244,-8.405c1.455,-0.948 3.193,-1.271 4.891,-0.912c1.475,0.312 2.768,1.107 3.702,2.264c0.472,-0.945 1.187,-1.751 2.096,-2.343c2.774,-1.806 6.497,-1.017 8.302,1.756l17.894,27.497c0.208,-0.687 0.398,-1.454 0.593,-2.24c0.649,-2.627 1.385,-5.605 3.248,-8.252c1.254,-1.781 4.363,-3.653 7.657,-3.616c1.103,0.012 2.111,0.52 2.84,1.429c1.125,1.403 1.525,3.686 1.045,5.956l-1.121,5.297l0.983,8.645c0.057,0.45 1.129,9.334 -1.845,15.042c1.727,0.274 3.318,1.281 4.343,2.856l2.182,3.353c1.955,3.004 1.101,7.038 -1.903,8.992l-21.795,14.181c-1.455,0.947 -3.191,1.271 -4.89,0.912zM58.111,72.907c0.375,0.079 0.721,0.302 0.947,0.649c0.452,0.694 0.255,1.623 -0.439,2.075c-1.617,1.053 -2.077,3.226 -1.025,4.843l2.182,3.352c1.02,1.567 3.275,2.044 4.842,1.024l21.793,-14.181c1.617,-1.052 2.077,-3.225 1.024,-4.842l-2.182,-3.353c-1.053,-1.616 -3.225,-2.076 -4.843,-1.025c-0.695,0.452 -1.623,0.255 -2.075,-0.439c-0.452,-0.695 -0.255,-1.623 0.439,-2.075c4.157,-2.705 3.948,-12.206 3.517,-15.639l-1.013,-8.904c-0.018,-0.161 -0.011,-0.323 0.023,-0.48l1.171,-5.535c0.333,-1.575 0,-2.897 -0.451,-3.459c-0.213,-0.266 -0.389,-0.302 -0.532,-0.305c-2.279,-0.025 -4.466,1.345 -5.169,2.344c-1.54,2.187 -2.204,4.875 -2.79,7.245c-0.552,2.231 -1.027,4.158 -2.119,5.53c-0.3,0.378 -0.764,0.587 -1.245,0.564c-0.478,-0.022 -0.923,-0.276 -1.186,-0.68l-19.363,-29.753c-0.902,-1.386 -2.763,-1.781 -4.151,-0.878c-0.671,0.437 -1.132,1.109 -1.298,1.893c-0.166,0.784 -0.017,1.585 0.42,2.257c0.226,0.347 0.29,0.753 0.21,1.129c-0.079,0.375 -0.302,0.721 -0.649,0.947c-0.695,0.452 -1.623,0.255 -2.075,-0.439l-2.454,-3.771c-1.02,-1.567 -3.276,-2.044 -4.843,-1.025c-1.617,1.052 -2.077,3.225 -1.025,4.843l2.455,3.772v0c0.452,0.695 0.255,1.623 -0.439,2.075c-0.695,0.452 -1.623,0.255 -2.075,-0.439v0c-0.875,-1.343 -2.808,-1.752 -4.151,-0.878c-0.672,0.438 -1.133,1.11 -1.299,1.894c-0.166,0.783 -0.016,1.585 0.421,2.257l4.223,6.489c0.226,0.347 0.29,0.753 0.21,1.129c-0.079,0.375 -0.302,0.721 -0.649,0.947c-0.695,0.452 -1.623,0.255 -2.075,-0.439c-0.8,-1.229 -2.566,-1.603 -3.795,-0.803c-1.163,0.757 -1.578,2.264 -0.965,3.506c2.844,5.768 9.769,19.661 12.649,24.087c1.747,2.684 5.513,7.168 9.655,10.671c4.154,3.513 7.539,5.019 9.062,4.035c0.001,-0.001 0.002,-0.002 0.003,-0.002v0c0.348,-0.229 0.753,-0.292 1.129,-0.213z"/><path fill="#40396e" d="M53.823,26.853l-9.916,-14.887c-0.458,-0.691 -1.388,-0.881 -2.079,-0.422c-0.69,0.457 -0.879,1.388 -0.422,2.079l9.916,14.887c0.229,0.345 0.574,0.565 0.95,0.642c0.377,0.077 0.782,0.01 1.128,-0.219c0.692,-0.46 0.88,-1.39 0.423,-2.08z" opacity=".35"/><g opacity=".35"><path fill="#40396e" d="M87.229,71.928l-21.792,14.181c-2.315,1.506 -5.412,0.851 -6.918,-1.464l-1.372,-2.109c-1.506,-2.315 -0.851,-5.412 1.464,-6.918l21.792,-14.181c2.315,-1.506 5.412,-0.851 6.918,1.464l1.372,2.109c1.506,2.315 0.85,5.412 -1.464,6.918z"/><circle cx="64.094" cy="79.01" r="2.5" fill="#40396e"/><path fill="#40396e" d="M61.364,88.278c-1.699,-0.359 -3.155,-1.359 -4.102,-2.814l-2.182,-3.352c-1.172,-1.8 -1.335,-3.972 -0.629,-5.843c-0.019,-0.004 -0.037,-0.008 -0.055,-0.012c-2.346,-0.496 -5.158,-2.125 -8.415,-4.88c-4.374,-3.698 -8.371,-8.464 -10.233,-11.326c-2.862,-4.397 -9.264,-17.172 -12.826,-24.396c-1.285,-2.604 -0.416,-5.763 2.02,-7.348c0.832,-0.542 1.754,-0.839 2.679,-0.91l-1.471,-2.262c-1.805,-2.774 -1.017,-6.497 1.756,-8.302c0.909,-0.591 1.936,-0.92 2.992,-0.967c-1.495,-2.925 -0.568,-6.576 2.244,-8.405c1.455,-0.948 3.193,-1.271 4.891,-0.912c1.475,0.312 2.768,1.107 3.702,2.264c0.472,-0.945 1.187,-1.751 2.096,-2.343c2.774,-1.806 6.497,-1.017 8.302,1.756l17.894,27.497c0.208,-0.687 0.398,-1.454 0.593,-2.24c0.649,-2.627 1.385,-5.605 3.248,-8.252c1.254,-1.781 4.363,-3.653 7.657,-3.616c1.103,0.012 2.111,0.52 2.84,1.429c1.125,1.403 1.525,3.686 1.045,5.956l-1.121,5.297l0.983,8.645c0.057,0.45 1.129,9.334 -1.845,15.042c1.727,0.274 3.318,1.281 4.343,2.856l2.182,3.353c1.955,3.004 1.101,7.038 -1.903,8.992l-21.795,14.181c-1.455,0.947 -3.191,1.271 -4.89,0.912zM58.111,72.907c0.375,0.079 0.721,0.302 0.947,0.649c0.452,0.694 0.255,1.623 -0.439,2.075c-1.617,1.053 -2.077,3.226 -1.025,4.843l2.182,3.352c1.02,1.567 3.275,2.044 4.842,1.024l21.793,-14.181c1.617,-1.052 2.077,-3.225 1.024,-4.842l-2.182,-3.353c-1.053,-1.616 -3.225,-2.076 -4.843,-1.025c-0.695,0.452 -1.623,0.255 -2.075,-0.439c-0.452,-0.695 -0.255,-1.623 0.439,-2.075c4.157,-2.705 3.948,-12.206 3.517,-15.639l-1.013,-8.904c-0.018,-0.161 -0.011,-0.323 0.023,-0.48l1.171,-5.535c0.333,-1.575 0,-2.897 -0.451,-3.459c-0.213,-0.266 -0.389,-0.302 -0.532,-0.305c-2.279,-0.025 -4.466,1.345 -5.169,2.344c-1.54,2.187 -2.204,4.875 -2.79,7.245c-0.552,2.231 -1.027,4.158 -2.119,5.53c-0.3,0.378 -0.764,0.587 -1.245,0.564c-0.478,-0.022 -0.923,-0.276 -1.186,-0.68l-19.363,-29.753c-0.902,-1.386 -2.763,-1.781 -4.151,-0.878c-0.671,0.437 -1.132,1.109 -1.298,1.893c-0.166,0.784 -0.017,1.585 0.42,2.257c0.226,0.347 0.29,0.753 0.21,1.129c-0.079,0.375 -0.302,0.721 -0.649,0.947c-0.695,0.452 -1.623,0.255 -2.075,-0.439l-2.454,-3.771c-1.02,-1.567 -3.276,-2.044 -4.843,-1.025c-1.617,1.052 -2.077,3.225 -1.025,4.843l2.455,3.772v0c0.452,0.695 0.255,1.623 -0.439,2.075c-0.695,0.452 -1.623,0.255 -2.075,-0.439v0c-0.875,-1.343 -2.808,-1.752 -4.151,-0.878c-0.672,0.438 -1.133,1.11 -1.299,1.894c-0.166,0.783 -0.016,1.585 0.421,2.257l4.223,6.489c0.226,0.347 0.29,0.753 0.21,1.129c-0.079,0.375 -0.302,0.721 -0.649,0.947c-0.695,0.452 -1.623,0.255 -2.075,-0.439c-0.8,-1.229 -2.566,-1.603 -3.795,-0.803c-1.163,0.757 -1.578,2.264 -0.965,3.506c2.844,5.768 9.769,19.661 12.649,24.087c1.747,2.684 5.513,7.168 9.655,10.671c4.154,3.513 7.539,5.019 9.062,4.035c0.001,-0.001 0.002,-0.002 0.003,-0.002v0c0.348,-0.229 0.753,-0.292 1.129,-0.213z"/><g><path fill="#ff9dcb" d="M87.229,71.928l-21.792,14.181c-2.315,1.506 -5.412,0.851 -6.918,-1.464l-1.372,-2.109c-1.506,-2.315 -0.851,-5.412 1.464,-6.918l21.792,-14.181c2.315,-1.506 5.412,-0.851 6.918,1.464l1.372,2.109c1.506,2.315 0.85,5.412 -1.464,6.918z"/><circle cx="64.094" cy="79.01" r="2.5" fill="#40396e"/><path fill="#40396e" d="M61.364,88.278c-1.699,-0.359 -3.155,-1.359 -4.102,-2.814l-2.182,-3.352c-1.172,-1.8 -1.335,-3.972 -0.629,-5.843c-0.019,-0.004 -0.037,-0.008 -0.055,-0.012c-2.346,-0.496 -5.158,-2.125 -8.415,-4.88c-4.374,-3.698 -8.371,-8.464 -10.233,-11.326c-2.862,-4.397 -9.264,-17.172 -12.826,-24.396c-1.285,-2.604 -0.416,-5.763 2.02,-7.348c0.832,-0.542 1.754,-0.839 2.679,-0.91l-1.471,-2.262c-1.805,-2.774 -1.017,-6.497 1.756,-8.302c0.909,-0.591 1.936,-0.92 2.992,-0.967c-1.495,-2.925 -0.568,-6.576 2.244,-8.405c1.455,-0.948 3.193,-1.271 4.891,-0.912c1.475,0.312 2.768,1.107 3.702,2.264c0.472,-0.945 1.187,-1.751 2.096,-2.343c2.774,-1.806 6.497,-1.017 8.302,1.756l17.894,27.497c0.208,-0.687 0.398,-1.454 0.593,-2.24c0.649,-2.627 1.385,-5.605 3.248,-8.252c1.254,-1.781 4.363,-3.653 7.657,-3.616c1.103,0.012 2.111,0.52 2.84,1.429c1.125,1.403 1.525,3.686 1.045,5.956l-1.121,5.297l0.983,8.645c0.057,0.45 1.129,9.334 -1.845,15.042c1.727,0.274 3.318,1.281 4.343,2.856l2.182,3.353c1.955,3.004 1.101,7.038 -1.903,8.992l-21.795,14.181c-1.455,0.947 -3.191,1.271 -4.89,0.912zM58.111,72.907c0.375,0.079 0.721,0.302 0.947,0.649c0.452,0.694 0.255,1.623 -0.439,2.075c-1.617,1.053 -2.077,3.226 -1.025,4.843l2.182,3.352c1.02,1.567 3.275,2.044 4.842,1.024l21.793,-14.181c1.617,-1.052 2.077,-3.225 1.024,-4.842l-2.182,-3.353c-1.053,-1.616 -3.225,-2.076 -4.843,-1.025c-0.695,0.452 -1.623,0.255 -2.075,-0.439c-0.452,-0.695 -0.255,-1.623 0.439,-2.075c4.157,-2.705 3.948,-12.206 3.517,-15.639l-1.013,-8.904c-0.018,-0.161 -0.011,-0.323 0.023,-0.48l1.171,-5.535c0.333,-1.575 0,-2.897 -0.451,-3.459c-0.213,-0.266 -0.389,-0.302 -0.532,-0.305c-2.279,-0.025 -4.466,1.345 -5.169,2.344c-1.54,2.187 -2.204,4.875 -2.79,7.245c-0.552,2.231 -1.027,4.158 -2.119,5.53c-0.3,0.378 -0.764,0.587 -1.245,0.564c-0.478,-0.022 -0.923,-0.276 -1.186,-0.68l-19.363,-29.753c-0.902,-1.386 -2.763,-1.781 -4.151,-0.878c-0.671,0.437 -1.132,1.109 -1.298,1.893c-0.166,0.784 -0.017,1.585 0.42,2.257c0.226,0.347 0.29,0.753 0.21,1.129c-0.079,0.375 -0.302,0.721 -0.649,0.947c-0.695,0.452 -1.623,0.255 -2.075,-0.439l-2.454,-3.771c-1.02,-1.567 -3.276,-2.044 -4.843,-1.025c-1.617,1.052 -2.077,3.225 -1.025,4.843l2.455,3.772v0c0.452,0.695 0.255,1.623 -0.439,2.075c-0.695,0.452 -1.623,0.255 -2.075,-0.439v0c-0.875,-1.343 -2.808,-1.752 -4.151,-0.878c-0.672,0.438 -1.133,1.11 -1.299,1.894c-0.166,0.783 -0.016,1.585 0.421,2.257l4.223,6.489c0.226,0.347 0.29,0.753 0.21,1.129c-0.079,0.375 -0.302,0.721 -0.649,0.947c-0.695,0.452 -1.623,0.255 -2.075,-0.439c-0.8,-1.229 -2.566,-1.603 -3.795,-0.803c-1.163,0.757 -1.578,2.264 -0.965,3.506c2.844,5.768 9.769,19.661 12.649,24.087c1.747,2.684 5.513,7.168 9.655,10.671c4.154,3.513 7.539,5.019 9.062,4.035c0.001,-0.001 0.002,-0.002 0.003,-0.002v0c0.348,-0.229 0.753,-0.292 1.129,-0.213z"/></g></g><g><path fill="#f7be36" d="M81.667,64.632l-3.282,-3.282c-1.524,-1.524 -3.781,-1.842 -5.63,-0.986c3.074,-5.633 -0.428,-16.141 -0.428,-16.141l-2.827,-8.486v-5.657c0,-2.828 -1.542,-5.348 -3.536,-4.95c-2.773,0.555 -5.016,2.747 -5.657,4.243c-2.121,4.95 -0.707,10.607 -2.121,13.435l-25.102,-25.102c-1.757,-1.757 -4.607,-1.757 -6.364,0c-1.757,1.757 -1.757,4.607 0,6.364l-3.182,-3.182c-1.953,-1.953 -5.118,-1.953 -7.071,0c-1.953,1.953 -1.953,5.118 0,7.071l3.182,3.182c-1.757,-1.757 -4.607,-1.757 -6.364,0c-1.757,1.757 -1.757,4.607 0,6.364l5.474,5.475c-1.657,-1.657 -4.343,-1.657 -5.999,0c-1.519,1.519 -1.666,3.931 -0.337,5.619c4.376,5.562 13.745,17.346 17.479,21.08c4.693,4.693 17.006,14.46 21.889,11.849c-0.661,1.777 -0.289,3.851 1.139,5.279l3.282,3.282c1.953,1.953 5.118,1.953 7.071,0l18.385,-18.385c1.952,-1.954 1.952,-5.119 -0.001,-7.072z"/><path fill="#ff9dcb" d="M81.734,71.637l-18.451,18.451c-1.953,1.953 -5.118,1.953 -7.071,0l-1.779,-1.779c-1.953,-1.953 -1.953,-5.118 0,-7.071l18.451,-18.451c1.953,-1.953 5.118,-1.953 7.071,0l1.779,1.779c1.952,1.952 1.952,5.118 0,7.071z"/><path fill="#40396e" d="M42.662,37.859l-15.33,-15.298c-0.587,-0.585 -1.536,-0.586 -2.121,0.002c-0.585,0.586 -0.584,1.536 0.002,2.121l15.33,15.298c0.293,0.292 0.676,0.438 1.06,0.438c0.385,0 0.769,-0.146 1.062,-0.44c0.584,-0.587 0.583,-1.536 -0.003,-2.121z" opacity=".35"/><path fill="#40396e" d="M20.154,29.612c-0.59,-0.58 -1.541,-0.574 -2.121,0.018c-0.581,0.591 -0.573,1.541 0.018,2.121l15.5,15.239c0.292,0.287 0.672,0.431 1.052,0.431c0.388,0 0.776,-0.149 1.069,-0.448c0.581,-0.591 0.573,-1.541 -0.018,-2.121z" opacity=".35"/><path fill="#40396e" d="M19.663,41.86c-0.586,-0.586 -1.535,-0.586 -2.121,0c-0.586,0.586 -0.586,1.535 0,2.121l11,11c0.293,0.293 0.677,0.439 1.061,0.439c0.384,0 0.768,-0.146 1.061,-0.439c0.586,-0.586 0.586,-1.535 0,-2.121z" opacity=".35"/><circle cx="60.5" cy="83.42" r="2.5" fill="#40396e"/><path fill="#f7be36" d="M14.649,47.569c-0.734,-0.734 -0.727,-1.931 0.017,-2.675c0.743,-0.743 1.941,-0.751 2.675,-0.017c0.733,0.734 -1.958,3.426 -2.692,2.692z"/><path fill="#f7be36" d="M15.181,35.998c-0.828,-0.827 -0.819,-2.177 0.019,-3.015c0.838,-0.838 2.188,-0.847 3.015,-0.019c0.828,0.827 -2.206,3.862 -3.034,3.034z"/><path fill="#f7be36" d="M28.615,22.57c-0.828,-0.827 -0.819,-2.177 0.019,-3.015c0.838,-0.838 2.188,-0.847 3.015,-0.019c0.828,0.827 -2.206,3.861 -3.034,3.034z"/><path fill="#f7be36" d="M18.541,26.452c-0.952,-0.952 -0.942,-2.505 0.021,-3.469c0.964,-0.964 2.517,-0.974 3.469,-0.022c0.952,0.952 -2.538,4.443 -3.49,3.491z"/></g><path fill="#40396e" d="M59.747,93.052c-1.736,0 -3.368,-0.677 -4.596,-1.904l-2.829,-2.828c-1.52,-1.519 -2.128,-3.609 -1.825,-5.586c-0.02,0 -0.038,0 -0.057,0c-2.397,0 -5.486,-1.012 -9.243,-3.032c-5.045,-2.713 -9.941,-6.548 -12.355,-8.963c-3.71,-3.709 -12.618,-14.883 -17.598,-21.213c-1.796,-2.281 -1.6,-5.552 0.455,-7.606c0.702,-0.702 1.542,-1.184 2.433,-1.445l-1.907,-1.908c-2.34,-2.34 -2.34,-6.146 0,-8.485c0.767,-0.767 1.704,-1.301 2.727,-1.565c-2.068,-2.552 -1.917,-6.316 0.455,-8.688c1.228,-1.229 2.86,-1.904 4.597,-1.904c1.508,0 2.938,0.51 4.091,1.448c0.266,-1.022 0.799,-1.959 1.565,-2.726c2.34,-2.341 6.146,-2.34 8.485,0l23.198,23.197c0.062,-0.715 0.089,-1.505 0.116,-2.314c0.091,-2.704 0.194,-5.771 1.47,-8.746c0.858,-2.002 3.513,-4.478 6.742,-5.123c1.082,-0.217 2.173,0.071 3.074,0.811c1.391,1.138 2.255,3.288 2.255,5.609v5.414l2.751,8.254c0.149,0.429 3.037,8.898 1.309,15.099c1.746,-0.089 3.512,0.566 4.84,1.896l2.829,2.829c2.534,2.534 2.534,6.657 0,9.191l-18.386,18.384c-1.228,1.227 -2.86,1.904 -4.596,1.904zM53.383,78.688c0.384,0 0.768,0.146 1.061,0.439c0.586,0.585 0.586,1.535 0,2.121c-1.364,1.365 -1.364,3.586 0,4.95l2.829,2.828c1.322,1.322 3.627,1.322 4.949,0l18.386,-18.385c1.364,-1.364 1.364,-3.585 0,-4.949l-2.829,-2.829c-1.365,-1.363 -3.585,-1.363 -4.95,0c-0.586,0.586 -1.535,0.586 -2.121,0c-0.586,-0.586 -0.586,-1.535 0,-2.121c3.507,-3.507 1.336,-12.759 0.204,-16.028l-2.834,-8.502c-0.052,-0.153 -0.078,-0.313 -0.078,-0.474v-5.657c0,-1.609 -0.6,-2.834 -1.157,-3.291c-0.264,-0.216 -0.443,-0.215 -0.584,-0.188c-2.234,0.447 -4.091,2.24 -4.572,3.363c-1.054,2.458 -1.147,5.226 -1.229,7.666c-0.078,2.297 -0.145,4.28 -0.929,5.849c-0.216,0.432 -0.626,0.732 -1.102,0.81c-0.473,0.077 -0.96,-0.079 -1.301,-0.42l-25.103,-25.103c-1.169,-1.169 -3.072,-1.171 -4.243,0c-0.566,0.566 -0.878,1.319 -0.878,2.121c0,0.802 0.312,1.555 0.878,2.121c0.293,0.293 0.439,0.677 0.439,1.061c0,0.384 -0.146,0.768 -0.439,1.061c-0.586,0.586 -1.535,0.586 -2.121,0l-3.182,-3.182c-1.322,-1.322 -3.628,-1.321 -4.95,0c-1.364,1.364 -1.364,3.585 0,4.95l3.183,3.182v0c0.586,0.586 0.586,1.535 0,2.121c-0.586,0.586 -1.535,0.586 -2.121,0v0c-1.134,-1.133 -3.109,-1.133 -4.243,0c-0.566,0.567 -0.879,1.32 -0.879,2.122c0,0.801 0.313,1.554 0.879,2.121l5.475,5.475c0.293,0.293 0.439,0.677 0.439,1.061c0,0.384 -0.146,0.768 -0.439,1.061c-0.586,0.586 -1.535,0.586 -2.121,0c-1.037,-1.037 -2.842,-1.037 -3.879,0c-0.981,0.981 -1.075,2.542 -0.219,3.63c3.977,5.055 13.627,17.213 17.361,20.947c2.265,2.265 6.877,5.872 11.655,8.441c4.791,2.577 8.415,3.35 9.701,2.071c0.001,-0.001 0.002,-0.002 0.003,-0.003v0c0.293,-0.294 0.677,-0.44 1.061,-0.44z" opacity=".35"/><path fill="#40396e" d="M89.95,64.193l-2.182,-3.353c-1.024,-1.575 -2.616,-2.582 -4.343,-2.856c2.974,-5.708 1.903,-14.592 1.845,-15.043l-0.983,-8.645l1.121,-5.297c0.48,-2.27 0.08,-4.553 -1.045,-5.956c-0.729,-0.91 -1.736,-1.417 -2.84,-1.429c-3.293,-0.037 -6.402,1.836 -7.657,3.616c-1.517,2.154 -2.283,4.525 -2.867,6.75v-1.9c0,-2.32 -0.864,-4.471 -2.255,-5.61c-0.901,-0.739 -1.992,-1.027 -3.074,-0.811c-0.749,0.15 -1.778,0.602 -2.763,1.126l-10.775,-16.559c-1.805,-2.773 -5.528,-3.562 -8.302,-1.756c-0.909,0.591 -1.624,1.397 -2.096,2.342c-0.934,-1.157 -2.227,-1.952 -3.702,-2.264c-1.699,-0.359 -3.436,-0.036 -4.891,0.912c-2.526,1.643 -3.525,4.757 -2.618,7.494c-1.735,-0.191 -3.533,0.361 -4.864,1.692c-0.767,0.767 -1.3,1.703 -1.565,2.726c-1.153,-0.938 -2.583,-1.448 -4.091,-1.448c-1.736,0 -3.369,0.676 -4.597,1.904c-2.372,2.371 -2.523,6.136 -0.455,8.688c-1.022,0.265 -1.96,0.799 -2.727,1.565c-2.34,2.34 -2.34,6.146 0,8.485l1.907,1.908c-0.891,0.262 -1.73,0.743 -2.433,1.445c-2.055,2.055 -2.251,5.325 -0.455,7.606c4.979,6.33 13.888,17.504 17.598,21.213c2.414,2.415 7.311,6.25 12.355,8.963c3.757,2.021 6.846,3.032 9.243,3.032c0.019,0 0.037,0 0.057,0c-0.303,1.977 0.306,4.067 1.825,5.586l2.829,2.828c1.228,1.228 2.859,1.904 4.596,1.904c1.737,0 3.368,-0.677 4.596,-1.904l7.268,-7.268l16.436,-10.695c3.005,-1.954 3.859,-5.988 1.904,-8.991zM86.411,70.671l-16.57,10.657l-5.144,5.223l-2.476,2.476c-1.322,1.322 -3.627,1.322 -4.949,0l-2.829,-2.828c-1.364,-1.364 -1.364,-3.585 0,-4.95c0.586,-0.586 0.586,-1.536 0,-2.121c-0.293,-0.293 -0.677,-0.439 -1.061,-0.439c-0.384,0 -0.768,0.146 -1.061,0.439c-0.001,0.001 -0.002,0.002 -0.003,0.003c-1.286,1.278 -4.91,0.506 -9.701,-2.071c-4.778,-2.569 -9.391,-6.177 -11.655,-8.441c-3.734,-3.734 -13.385,-15.893 -17.361,-20.947c-0.856,-1.088 -0.763,-2.648 0.219,-3.63c1.037,-1.037 2.842,-1.037 3.879,0c0.586,0.586 1.535,0.586 2.121,0c0.293,-0.293 0.439,-0.677 0.439,-1.061c0,-0.384 -0.146,-0.768 -0.439,-1.061l-5.475,-5.475c-0.566,-0.567 -0.879,-1.32 -0.879,-2.121c0,-0.802 0.313,-1.555 0.879,-2.122c1.134,-1.133 3.109,-1.133 4.243,0c0.586,0.586 1.535,0.586 2.121,0c0.586,-0.586 0.586,-1.535 0,-2.121l-3.183,-3.182c-1.364,-1.365 -1.364,-3.586 0,-4.95c1.322,-1.321 3.628,-1.322 4.95,0l3.182,3.182c0.586,0.586 1.535,0.586 2.121,0c0.293,-0.293 0.439,-0.677 0.439,-1.061c0,-0.37 -0.143,-0.736 -0.416,-1.025l0.001,-0.001l-0.025,-0.034c-0.191,-0.293 -0.517,-0.876 -0.811,-1.501c-0.042,-0.202 -0.067,-0.409 -0.067,-0.62c0,-0.802 0.312,-1.555 0.878,-2.121c0.693,-0.693 1.642,-0.965 2.545,-0.837c0.572,0.128 1.151,0.385 1.697,0.835c0.266,0.22 0.985,0.778 1.502,1.459c0.501,0.66 1.55,0.892 2.245,0.44c0.695,-0.452 0.891,-1.381 0.439,-2.075l-2.455,-3.771c-1.051,-1.619 -0.591,-3.792 1.026,-4.844c1.567,-1.019 3.823,-0.543 4.843,1.025l2.454,3.771c0.452,0.695 1.381,0.891 2.075,0.439c0.347,-0.226 0.57,-0.571 0.649,-0.947c0.079,-0.375 0.016,-0.781 -0.21,-1.129c-0.437,-0.671 -0.586,-1.472 -0.42,-2.257c0.166,-0.784 0.627,-1.456 1.298,-1.893c1.388,-0.903 3.25,-0.507 4.151,0.878l10.744,16.51v0l0.688,1.058v0l0.075,0.116l0.023,-0.013c0.454,0.57 1.244,0.752 1.899,0.399c1.067,-0.574 2.46,-1.181 3.211,-1.331c0.141,-0.026 0.32,-0.027 0.584,0.188c0.559,0.458 1.159,1.682 1.159,3.292l0.124,8.22c0.027,1.453 1.358,2.25 2.833,1.808c0.241,-0.072 0.429,-0.277 0.561,-0.446c1.076,-1.384 1.461,-3.229 2.013,-5.46c0.585,-2.371 1.25,-5.059 2.79,-7.245c0.703,-0.999 2.891,-2.369 5.169,-2.344c0.143,0.003 0.319,0.04 0.532,0.305c0.451,0.563 0.784,1.885 0.451,3.459l-1.171,5.535c-0.033,0.158 -0.041,0.32 -0.023,0.48l1.013,8.904c0.431,3.433 0.639,12.934 -3.518,15.639c-0.695,0.452 -0.891,1.381 -0.439,2.075c0.452,0.694 1.381,0.891 2.075,0.439c1.618,-1.051 3.789,-0.592 4.843,1.025l2.182,3.353c1.053,1.618 0.593,3.79 -1.024,4.843z"/></g></g></svg>