<svg xmlns="http://www.w3.org/2000/svg" xmlns:xlink="http://www.w3.org/1999/xlink" viewBox="0,0,256,256" width="100px" height="100px" fill-rule="nonzero"><g fill="none" fill-rule="nonzero" stroke="none" stroke-width="1" stroke-linecap="butt" stroke-linejoin="miter" stroke-miterlimit="10" stroke-dasharray="" stroke-dashoffset="0" font-family="none" font-weight="none" font-size="none" text-anchor="none" style="mix-blend-mode: normal"><g transform="scale(2.56,2.56)"><path d="M66.88,95.5c-1.712,0 -3.329,-0.661 -4.552,-1.86l-37.697,-37.001c-1.237,-1.214 -1.947,-2.905 -1.947,-4.639c0,-1.734 0.71,-3.425 1.947,-4.639l37.695,-37c0.784,-0.768 2.149,-1.708 4.226,-1.85l0.195,-0.013l0.196,0.002c1.736,0.017 3.361,0.709 4.577,1.948l7.935,8.084c1.216,1.238 1.877,2.877 1.861,4.613c-0.016,1.737 -0.708,3.363 -1.948,4.58l-24.732,24.275l24.732,24.276c1.239,1.215 1.931,2.842 1.947,4.579c0.016,1.736 -0.646,3.375 -1.862,4.614l-7.935,8.085c-1.214,1.238 -2.84,1.93 -4.576,1.947h-0.024h-0.038z" fill="#000000" opacity="0.35"></path><path d="M64.88,93.5c-1.712,0 -3.329,-0.661 -4.552,-1.86l-37.697,-37.001c-1.237,-1.214 -1.947,-2.905 -1.947,-4.639c0,-1.734 0.71,-3.425 1.947,-4.639l37.695,-37c0.784,-0.768 2.149,-1.708 4.226,-1.85l0.195,-0.013l0.196,0.002c1.736,0.017 3.361,0.709 4.577,1.948l7.935,8.084c1.216,1.238 1.877,2.877 1.861,4.613c-0.016,1.737 -0.708,3.363 -1.948,4.58l-24.732,24.275l24.732,24.276c1.239,1.215 1.931,2.842 1.947,4.579c0.016,1.736 -0.646,3.375 -1.862,4.614l-7.935,8.085c-1.214,1.238 -2.84,1.93 -4.576,1.947h-0.024h-0.038z" fill="#f2f2f2"></path><path d="M64.88,87l-37.696,-37l37.696,-37l7.936,8.085l-29.459,28.915l29.459,28.915z" fill="#ff9dcb"></path><path d="M64.88,88.5c-0.393,0 -0.77,-0.154 -1.051,-0.43l-37.695,-37c-0.287,-0.282 -0.449,-0.667 -0.449,-1.07c0,-0.403 0.162,-0.789 0.449,-1.07l37.695,-37c0.284,-0.278 0.63,-0.4 1.065,-0.43c0.397,0.004 0.778,0.166 1.056,0.449l7.936,8.085c0.581,0.591 0.572,1.541 -0.02,2.121l-28.367,27.845l28.368,27.844c0.591,0.58 0.6,1.53 0.02,2.121l-7.936,8.085c-0.278,0.284 -0.659,0.445 -1.056,0.449c-0.006,0.001 -0.011,0.001 -0.015,0.001zM29.326,50l35.534,34.879l5.834,-5.944l-28.387,-27.865c-0.287,-0.282 -0.449,-0.667 -0.449,-1.07c0,-0.403 0.162,-0.789 0.449,-1.07l28.388,-27.864l-5.834,-5.944z" fill="#40396e"></path></g></g></svg>