<svg xmlns="http://www.w3.org/2000/svg" xmlns:xlink="http://www.w3.org/1999/xlink" viewBox="0,0,256,256" width="100px" height="100px" fill-rule="nonzero"><g fill="none" fill-rule="nonzero" stroke="none" stroke-width="1" stroke-linecap="butt" stroke-linejoin="miter" stroke-miterlimit="10" stroke-dasharray="" stroke-dashoffset="0" font-family="none" font-weight="none" font-size="none" text-anchor="none" style="mix-blend-mode: normal"><g transform="scale(2.56,2.56)"><path d="M37.12,8.499c1.712,0 3.329,0.661 4.552,1.86l37.697,37.001c1.237,1.214 1.947,2.905 1.947,4.639c0,1.734 -0.71,3.425 -1.947,4.639l-37.695,37c-0.784,0.768 -2.149,1.708 -4.226,1.85l-0.195,0.013l-0.195,-0.001c-1.736,-0.017 -3.361,-0.709 -4.577,-1.948l-7.935,-8.084c-1.216,-1.238 -1.877,-2.877 -1.861,-4.613c0.016,-1.737 0.708,-3.363 1.948,-4.58l24.731,-24.275l-24.733,-24.277c-1.239,-1.215 -1.931,-2.842 -1.947,-4.579c-0.016,-1.736 0.646,-3.375 1.862,-4.614l7.935,-8.085c1.214,-1.238 2.84,-1.93 4.576,-1.947h0.024h0.039z" fill="#000000" opacity="0.35"></path><path d="M35.12,6.499c1.712,0 3.329,0.661 4.552,1.86l37.697,37.001c1.237,1.214 1.947,2.905 1.947,4.639c0,1.734 -0.71,3.425 -1.947,4.639l-37.695,37c-0.784,0.768 -2.149,1.708 -4.226,1.85l-0.195,0.013l-0.195,-0.001c-1.736,-0.017 -3.361,-0.709 -4.577,-1.948l-7.935,-8.084c-1.216,-1.238 -1.877,-2.877 -1.861,-4.613c0.016,-1.737 0.708,-3.363 1.948,-4.58l24.731,-24.275l-24.733,-24.277c-1.239,-1.215 -1.931,-2.842 -1.947,-4.579c-0.016,-1.736 0.646,-3.375 1.862,-4.614l7.935,-8.085c1.214,-1.238 2.84,-1.93 4.576,-1.947h0.024h0.039z" fill="#f2f2f2"></path><path d="M35.12,12.999l37.696,37l-37.696,37l-7.935,-8.085l29.458,-28.915l-29.458,-28.914z" fill="#ff9dcb"></path><path d="M35.12,88.499c-0.005,0 -0.009,0 -0.014,0c-0.397,-0.004 -0.778,-0.166 -1.056,-0.449l-7.936,-8.085c-0.581,-0.591 -0.572,-1.541 0.02,-2.121l28.368,-27.845l-28.368,-27.844c-0.591,-0.58 -0.6,-1.53 -0.02,-2.121l7.936,-8.085c0.278,-0.284 0.659,-0.445 1.056,-0.449c0.422,-0.018 0.781,0.151 1.065,0.43l37.696,37c0.287,0.282 0.449,0.667 0.449,1.07c0,0.403 -0.162,0.789 -0.449,1.07l-37.696,37c-0.281,0.275 -0.658,0.429 -1.051,0.429zM29.306,78.934l5.834,5.944l35.535,-34.879l-35.535,-34.879l-5.834,5.944l28.388,27.864c0.287,0.282 0.449,0.667 0.449,1.07c0,0.403 -0.162,0.789 -0.449,1.07z" fill="#40396e"></path></g></g></svg>