<svg xmlns="http://www.w3.org/2000/svg" xmlns:xlink="http://www.w3.org/1999/xlink" width="100" height="100" fill-rule="nonzero" viewBox="0 0 256 256"><g fill="none" fill-rule="nonzero" stroke="none" stroke-dashoffset="0" stroke-linecap="none" stroke-linejoin="none" stroke-miterlimit="10" stroke-width="none" font-family="none" font-size="none" font-weight="none" text-anchor="none" style="mix-blend-mode:normal"><g transform="scale(2.56,2.56)"><path fill="#000" stroke="none" stroke-linecap="butt" stroke-linejoin="miter" stroke-width="1" d="M25.5,89c-5.79,0 -10.5,-4.71 -10.5,-10.5v-4.5h-1.5c-3.584,0 -6.5,-2.916 -6.5,-6.5v-8c0,-3.584 2.916,-6.5 6.5,-6.5h2.098c0.2,-0.568 0.447,-1.115 0.739,-1.636c-3.408,-3.942 -5.337,-9.005 -5.337,-14.364c0,-12.131 9.869,-22 22,-22c5.897,0 11.444,2.379 15.5,6.402c4.056,-4.023 9.603,-6.402 15.5,-6.402c12.131,0 22,9.869 22,22c0,5.359 -1.929,10.422 -5.337,14.364c0.562,1.003 0.961,2.103 1.17,3.261l5.767,-4.325c1.12,-0.839 2.505,-1.3 3.9,-1.3c1.004,0 2.009,0.237 2.907,0.686c2.218,1.111 3.593,3.338 3.593,5.814v22c0,2.476 -1.375,4.703 -3.59,5.812c-0.898,0.45 -1.904,0.688 -2.909,0.688c-1.395,0 -2.777,-0.459 -3.895,-1.294l-5.606,-4.206c0,5.79 -4.71,10.5 -10.5,10.5z" opacity=".35"/><path fill="#f2f2f2" stroke="none" stroke-linecap="butt" stroke-linejoin="miter" stroke-width="1" d="M23.5,87c-5.79,0 -10.5,-4.71 -10.5,-10.5v-4.5h-1.5c-3.584,0 -6.5,-2.916 -6.5,-6.5v-8c0,-3.584 2.916,-6.5 6.5,-6.5h2.098c0.2,-0.568 0.447,-1.115 0.739,-1.636c-3.408,-3.942 -5.337,-9.005 -5.337,-14.364c0,-12.131 9.869,-22 22,-22c5.897,0 11.444,2.379 15.5,6.402c4.056,-4.023 9.603,-6.402 15.5,-6.402c12.131,0 22,9.869 22,22c0,5.359 -1.929,10.422 -5.337,14.364c0.562,1.003 0.961,2.103 1.17,3.261l5.767,-4.325c1.12,-0.839 2.505,-1.3 3.9,-1.3c1.004,0 2.009,0.237 2.907,0.686c2.218,1.111 3.593,3.338 3.593,5.814v22c0,2.476 -1.375,4.703 -3.59,5.812c-0.898,0.45 -1.904,0.688 -2.909,0.688c-1.395,0 -2.777,-0.459 -3.895,-1.294l-5.606,-4.206c0,5.79 -4.71,10.5 -10.5,10.5z"/><path fill="#ff9dcb" stroke="none" stroke-linecap="butt" stroke-linejoin="miter" stroke-width="1" d="M81.5,58.5h-8v-4c0,-2.209 -1.791,-4 -4,-4h-7.5h-0.5v-0.025c0.167,0.005 0.331,0.025 0.5,0.025c8.56,0 15.5,-6.94 15.5,-15.5c0,-8.56 -6.94,-15.5 -15.5,-15.5c-8.56,0 -15.5,6.94 -15.5,15.5c0,0.169 0.02,0.333 0.025,0.5h-0.051c0.006,-0.167 0.026,-0.331 0.026,-0.5c0,-8.56 -6.94,-15.5 -15.5,-15.5c-8.56,0 -15.5,6.94 -15.5,15.5c0,8.56 6.94,15.5 15.5,15.5c0.169,0 0.333,-0.02 0.5,-0.025v0.025h-0.5h-7.5c-2.209,0 -4,1.791 -4,4v3h-8v8h8v11c0,2.209 1.791,4 4,4h46c2.209,0 4,-1.791 4,-4v-6h8l8,5v-22z"/><rect width="10" height="9" x="11" y="57" fill="#40396e" stroke="none" stroke-linecap="butt" stroke-linejoin="miter" stroke-width="1"/><path fill="#40396e" stroke="none" stroke-linecap="butt" stroke-linejoin="miter" stroke-width="1" d="M82,71h-10v-13h10l8,-4v22z"/><circle cx="31" cy="62" r="4" fill="#40396e" stroke="none" stroke-linecap="butt" stroke-linejoin="miter" stroke-width="1"/><circle cx="42" cy="63" r="3" fill="#40396e" stroke="none" stroke-linecap="butt" stroke-linejoin="miter" stroke-width="1"/><rect width="34" height="17" x="29" y="35" fill="#40396e" stroke="none" stroke-linecap="butt" stroke-linejoin="miter" stroke-width="1"/><path fill="none" stroke="#40396e" stroke-linecap="round" stroke-linejoin="round" stroke-width="3" d="M81.5,59.5h-8v-5c0,-2.209 -1.791,-4 -4,-4h-7.5h-0.5v-0.025c0.167,0.005 0.331,0.025 0.5,0.025c8.56,0 15.5,-6.94 15.5,-15.5c0,-8.56 -6.94,-15.5 -15.5,-15.5c-8.56,0 -15.5,6.94 -15.5,15.5c0,0.169 0.02,0.333 0.025,0.5h-0.051c0.006,-0.167 0.026,-0.331 0.026,-0.5c0,-8.56 -6.94,-15.5 -15.5,-15.5c-8.56,0 -15.5,6.94 -15.5,15.5c0,8.56 6.94,15.5 15.5,15.5c0.169,0 0.333,-0.02 0.5,-0.025v0.025h-0.5h-7.5c-2.209,0 -4,1.791 -4,4v3h-8v8h8v11c0,2.209 1.791,4 4,4h46c2.209,0 4,-1.791 4,-4v-7h8l8,6v-22z"/><circle cx="31" cy="35" r="14" fill="#914569" stroke="none" stroke-linecap="butt" stroke-linejoin="miter" stroke-width="1"/><circle cx="62" cy="35" r="14" fill="#914569" stroke="none" stroke-linecap="butt" stroke-linejoin="miter" stroke-width="1"/><circle cx="31" cy="35" r="5" fill="#40396e" stroke="none" stroke-linecap="butt" stroke-linejoin="miter" stroke-width="1"/><circle cx="62" cy="35" r="5" fill="#40396e" stroke="none" stroke-linecap="butt" stroke-linejoin="miter" stroke-width="1"/></g></g></svg>