<svg xmlns="http://www.w3.org/2000/svg" xmlns:xlink="http://www.w3.org/1999/xlink" width="100" height="100" fill-rule="nonzero" viewBox="0 0 256 256"><g fill="none" fill-rule="nonzero" stroke="none" stroke-dashoffset="0" stroke-linecap="none" stroke-linejoin="none" stroke-miterlimit="10" stroke-width="none" font-family="none" font-size="none" font-weight="none" text-anchor="none" style="mix-blend-mode:normal"><g transform="scale(2.56,2.56)"><path fill="#000" stroke="none" stroke-linecap="butt" stroke-linejoin="miter" stroke-width="1" d="M93.985,40c0,-4.725 -3.301,-8.686 -7.716,-9.719c0.022,-0.108 0.056,-0.207 0.075,-0.318c4.845,-0.429 8.656,-4.509 8.656,-9.463c0,-3.351 -1.858,-7.538 -7.07,-9.24c-1.062,-0.347 -4.835,-1.481 -8.773,-1.481c-6.601,0 -9.929,3.204 -11.326,5.115c-0.114,0.156 -0.227,0.32 -0.339,0.489c-1.692,-2.632 -4.638,-4.383 -7.992,-4.383c-3.167,0 -5.969,1.564 -7.696,3.953c-0.933,-0.836 -1.939,-1.628 -3.034,-2.357c-1.566,-1.044 -3.388,-1.596 -5.268,-1.596c-2.042,0 -3.985,0.657 -5.587,1.823c-1.794,-1.722 -4.224,-2.787 -6.901,-2.787c-3.386,0 -6.379,1.699 -8.184,4.285c-1.733,-1.044 -3.615,-1.765 -5.456,-2.133c-0.612,-0.126 -1.244,-0.188 -1.875,-0.188c-4.509,0 -8.425,3.21 -9.313,7.632c-0.499,2.49 0.001,5.024 1.408,7.134c0.134,0.202 0.275,0.398 0.423,0.587c-1.14,1.777 -2.017,4.117 -2.017,7.147c0,5.389 4.01,7.537 7.742,9.983c-0.943,1.475 -2.742,5.141 -2.742,7.017c0,4.732 3.871,6.626 8.404,7.343l-6.894,19.345c-1.095,2.919 -0.384,6.235 1.816,8.452c1.514,1.522 3.529,2.36 5.674,2.36c0.943,0 1.872,-0.165 2.763,-0.492l5.3,-1.95c0.528,4.742 4.557,8.442 9.437,8.442c4.236,0 7.831,-2.788 9.053,-6.625c1.569,1.024 3.438,1.625 5.447,1.625c0.233,0 0.461,-0.019 0.69,-0.035c0.829,2.112 2.4,3.941 4.587,5.034c1.313,0.654 2.779,1 4.239,1c2.145,0 4.161,-0.705 5.785,-1.954c1.778,1.061 4.153,1.954 7.216,1.954c6.468,0 9.942,-4.374 11.518,-6.668c3.542,-1.399 5.982,-4.837 5.982,-8.832c0,-4.783 -3.557,-8.741 -8.163,-9.395c0.089,-0.523 0.146,-1.057 0.146,-1.604c0,-0.549 -0.057,-1.083 -0.147,-1.607c2.592,-0.374 4.942,-1.797 6.452,-3.977c1.447,-2.085 1.995,-4.611 1.542,-7.108c-0.451,-2.497 -1.849,-4.668 -3.934,-6.113c-0.511,-0.355 -1.033,-0.676 -1.555,-0.998c4.37,-1.067 7.627,-5.004 7.627,-9.697z" opacity=".35"/><path fill="#f2f2f2" stroke="none" stroke-linecap="butt" stroke-linejoin="miter" stroke-width="1" d="M91.985,38c0,-4.725 -3.301,-8.686 -7.716,-9.719c0.022,-0.108 0.056,-0.207 0.075,-0.318c4.845,-0.429 8.656,-4.509 8.656,-9.463c0,-3.351 -1.858,-7.538 -7.07,-9.24c-1.062,-0.347 -4.835,-1.481 -8.773,-1.481c-6.601,0 -9.929,3.204 -11.326,5.115c-0.114,0.156 -0.227,0.32 -0.339,0.489c-1.692,-2.632 -4.638,-4.383 -7.992,-4.383c-3.167,0 -5.969,1.564 -7.696,3.953c-0.933,-0.836 -1.939,-1.628 -3.034,-2.357c-1.566,-1.044 -3.388,-1.596 -5.268,-1.596c-2.042,0 -3.985,0.657 -5.587,1.823c-1.794,-1.722 -4.224,-2.787 -6.901,-2.787c-3.386,0 -6.379,1.699 -8.184,4.285c-1.733,-1.044 -3.615,-1.765 -5.456,-2.133c-0.612,-0.126 -1.244,-0.188 -1.875,-0.188c-4.509,0 -8.425,3.21 -9.313,7.632c-0.499,2.49 0.001,5.024 1.408,7.134c0.134,0.202 0.275,0.398 0.423,0.587c-1.14,1.777 -2.017,4.117 -2.017,7.147c0,5.389 2.764,9.457 6.496,11.904c-0.942,1.474 -1.496,3.22 -1.496,5.096c0,4.732 3.481,8.655 8.014,9.372l-6.504,17.316c-1.095,2.919 -0.384,6.235 1.816,8.452c1.514,1.522 3.529,2.36 5.674,2.36c0.943,0 1.872,-0.165 2.763,-0.492l5.3,-1.95c0.528,4.742 4.557,8.442 9.437,8.442c4.236,0 7.831,-2.788 9.053,-6.625c1.569,1.024 3.438,1.625 5.447,1.625c0.233,0 0.461,-0.019 0.69,-0.035c0.829,2.112 2.4,3.941 4.587,5.034c1.313,0.654 2.779,1 4.239,1c2.145,0 4.161,-0.705 5.785,-1.954c1.778,1.061 4.153,1.954 7.216,1.954c6.468,0 9.942,-4.374 11.518,-6.668c3.542,-1.399 5.982,-4.837 5.982,-8.832c0,-4.783 -3.557,-8.741 -8.163,-9.395c0.089,-0.523 0.146,-1.057 0.146,-1.604c0,-0.549 -0.057,-1.083 -0.147,-1.607c2.592,-0.374 4.942,-1.797 6.452,-3.977c1.447,-2.085 1.995,-4.611 1.542,-7.108c-0.451,-2.497 -1.849,-4.668 -3.934,-6.113c-0.511,-0.355 -1.033,-0.676 -1.555,-0.998c4.37,-1.067 7.627,-5.004 7.627,-9.697z"/><circle cx="29.015" cy="18.016" r="3.48" fill="#f9b84f" stroke="none" stroke-linecap="butt" stroke-linejoin="miter" stroke-width="1"/><circle cx="18.5" cy="49.5" r="3" fill="#81c2f6" stroke="none" stroke-linecap="butt" stroke-linejoin="miter" stroke-width="1"/><circle cx="57.5" cy="18.5" r="3" fill="#81c2f6" stroke="none" stroke-linecap="butt" stroke-linejoin="miter" stroke-width="1"/><circle cx="81.995" cy="38" r="3.49" fill="#d84178" stroke="none" stroke-linecap="butt" stroke-linejoin="miter" stroke-width="1"/><circle cx="72.5" cy="67.5" r="3" fill="#81c2f6" stroke="none" stroke-linecap="butt" stroke-linejoin="miter" stroke-width="1"/><circle cx="50" cy="78" r="4" fill="#f9b84f" stroke="none" stroke-linecap="butt" stroke-linejoin="miter" stroke-width="1"/><circle cx="35.5" cy="83.5" r="3" fill="#ff7575" stroke="none" stroke-linecap="butt" stroke-linejoin="miter" stroke-width="1"/><path fill="#ff9dcb" stroke="none" stroke-linecap="butt" stroke-linejoin="miter" stroke-width="1" d="M64.773,61.471c3.124,-3.124 -0.833,-12.147 -8.839,-20.153c-8.006,-8.006 -17.028,-11.962 -20.152,-8.838c-0.296,0.297 -0.509,0.661 -0.681,1.058l-0.018,-0.018l-17.083,45.48l45.618,-16.783l-0.016,-0.016c0.444,-0.175 0.846,-0.405 1.171,-0.73z"/><path fill="#fff" stroke="none" stroke-linecap="butt" stroke-linejoin="miter" stroke-width="1" d="M41,41l-23,38l29,-33z" opacity=".5"/><ellipse cx="3.862" cy="68.588" fill="#40396e" stroke="none" stroke-linecap="butt" stroke-linejoin="miter" stroke-width="1" rx="7.805" ry="22.627" transform="rotate(-45.001)"/><path fill="#40396e" stroke="none" stroke-linecap="butt" stroke-linejoin="miter" stroke-width="1" d="M77.156,15.779c2.831,0 5.769,0.916 6.288,1.086c0.543,0.177 1.556,0.508 1.556,1.635c0,0.829 -0.672,1.5 -1.5,1.5c-0.28,0 -0.543,-0.077 -0.767,-0.211c-1.082,-0.441 -3.754,-1.012 -5.747,-1.012c-1.074,0 -1.952,0.166 -2.276,0.609c-0.396,0.542 -0.222,1.066 0.586,2.587c0.862,1.625 2.043,3.849 0.47,6.331c-0.712,1.124 -1.96,1.443 -3.452,1.443c-0.957,0 -2.015,-0.131 -3.097,-0.265c-0.765,-0.095 -2.044,-0.254 -3.002,-0.254c-0.576,0 -1.036,0.058 -1.197,0.221c0,0.002 -0.016,0.05 -0.021,0.143c-0.069,1.146 0.687,1.803 2.428,3.026c1.741,1.223 4.127,2.899 3.552,6.145c-0.581,3.281 -5.868,5.664 -10.917,7.214c1.434,1.84 2.622,3.66 3.548,5.39c1.281,-0.227 2.729,-0.382 4.298,-0.382c3.962,0 8.694,0.987 13.449,4.284c0.681,0.472 0.851,1.407 0.378,2.087c-0.292,0.419 -0.759,0.644 -1.234,0.644c-0.295,0 -0.593,-0.086 -0.854,-0.268c-4.167,-2.89 -8.312,-3.75 -11.773,-3.75c-1.057,0 -2.05,0.08 -2.961,0.207c1.224,3.212 1.282,5.86 -0.139,7.281c-0.325,0.325 -0.727,0.555 -1.171,0.73l0.016,0.016l-45.617,16.784l17.083,-45.48l0.018,0.018c0.172,-0.397 0.384,-0.762 0.681,-1.058c0.724,-0.724 1.764,-1.066 3.036,-1.066c1.859,0 4.212,0.733 6.787,2.077c0.546,-1.876 0.862,-4.077 0.435,-6.291c-0.567,-2.946 -2.375,-5.453 -5.372,-7.451c-0.689,-0.459 -0.876,-1.391 -0.416,-2.08c0.289,-0.435 0.765,-0.669 1.25,-0.669c0.286,0 0.575,0.082 0.83,0.252c3.698,2.465 5.938,5.628 6.658,9.402c0.584,3.057 0.065,6.014 -0.717,8.395c2.51,1.624 5.136,3.744 7.661,6.269c0.7,0.7 1.357,1.409 1.994,2.121c5.351,-1.548 9.807,-3.571 10.095,-5.201c0.22,-1.242 -0.501,-1.887 -2.323,-3.167c-1.727,-1.213 -3.875,-2.723 -3.697,-5.662c0.071,-1.181 0.638,-1.887 1.102,-2.272c0.838,-0.697 1.957,-0.913 3.226,-0.913c1.013,0 2.121,0.138 3.257,0.279c0.806,0.1 1.976,0.245 2.809,0.245c0.389,0 0.705,-0.032 0.875,-0.114c0.529,-0.89 0.227,-1.652 -0.625,-3.255c-0.812,-1.529 -1.923,-3.623 -0.357,-5.764c1.025,-1.404 2.92,-1.836 4.866,-1.836M77.156,12.779c-4.172,0 -6.266,1.667 -7.289,3.065c-2.103,2.877 -1.382,5.698 -0.535,7.605c-0.997,-0.12 -2.012,-0.225 -3.002,-0.225c-2.161,0 -3.844,0.525 -5.144,1.606c-1.298,1.076 -2.072,2.639 -2.179,4.398c-0.279,4.611 3.133,7.009 4.967,8.297c0.122,0.086 0.235,0.166 0.341,0.242c-0.983,0.561 -2.714,1.364 -5.459,2.251c-0.272,-0.286 -0.537,-0.557 -0.801,-0.822c-2.01,-2.01 -4.165,-3.853 -6.322,-5.412c0.601,-2.668 0.67,-5.248 0.203,-7.694c-0.876,-4.593 -3.548,-8.407 -7.941,-11.336c-0.74,-0.493 -1.603,-0.754 -2.493,-0.754c-1.509,0 -2.909,0.749 -3.746,2.003c-0.667,1 -0.905,2.201 -0.669,3.38c0.236,1.179 0.917,2.195 1.917,2.862c2.336,1.557 3.674,3.364 4.09,5.522c0.089,0.461 0.137,0.943 0.143,1.443c-1.595,-0.53 -3.073,-0.796 -4.42,-0.797c-2.655,0 -4.27,1.058 -5.158,1.945c-0.437,0.437 -0.802,0.948 -1.11,1.555c-0.11,0.172 -0.203,0.356 -0.276,0.552l-17.083,45.48c-0.413,1.098 -0.147,2.337 0.68,3.169c0.575,0.577 1.345,0.886 2.13,0.886c0.347,0 0.698,-0.06 1.035,-0.185l45.618,-16.783c0.166,-0.061 0.324,-0.136 0.474,-0.223c0.69,-0.321 1.27,-0.721 1.767,-1.217c1.188,-1.188 2.289,-3.224 1.85,-6.588c3.277,0.161 6.365,1.233 9.192,3.193c0.755,0.525 1.642,0.803 2.563,0.803c1.476,0 2.859,-0.724 3.699,-1.936c0.685,-0.986 0.944,-2.182 0.73,-3.366c-0.214,-1.182 -0.876,-2.21 -1.863,-2.895c-4.61,-3.198 -9.71,-4.819 -15.159,-4.819c-0.897,0 -1.801,0.045 -2.705,0.135c-0.129,-0.21 -0.26,-0.419 -0.394,-0.629c5.549,-2.231 8.545,-4.932 9.124,-8.205c0.512,-2.89 -0.486,-5.008 -1.786,-6.539c0.057,0.001 0.113,0.001 0.17,0.001c2.779,0 4.793,-0.955 5.986,-2.838c1.982,-3.126 1.189,-6.056 0.311,-8.01c1.174,0.156 2.325,0.43 2.868,0.623c0.624,0.313 1.316,0.478 2.02,0.478c2.481,0 4.5,-2.019 4.5,-4.5c0,-1.234 -0.471,-3.458 -3.625,-4.487c-0.627,-0.206 -3.935,-1.234 -7.219,-1.234z"/><path fill="#40396e" stroke="none" stroke-linecap="butt" stroke-linejoin="miter" stroke-width="1" d="M80.517,76.998c0.828,0 1.5,0.671 1.5,1.5c0,0.829 -0.672,1.5 -1.5,1.5c-1.154,0 -1.771,0.844 -2.764,2.337c-1.085,1.632 -2.436,3.663 -5.236,3.663c-2.621,0 -3.974,-1.353 -5.061,-2.439c-0.939,-0.939 -1.561,-1.561 -2.939,-1.561c-1.692,0 -3.247,2.348 -3.658,3.171c-0.263,0.525 -0.793,0.83 -1.343,0.83c-0.226,0 -0.454,-0.051 -0.67,-0.159c-0.741,-0.371 -1.041,-1.271 -0.671,-2.013c0.247,-0.494 2.525,-4.829 6.342,-4.829c2.621,0 3.974,1.353 5.061,2.439c0.939,0.939 1.561,1.561 2.939,1.561c1.138,0 1.751,-0.84 2.738,-2.324c1.089,-1.638 2.443,-3.676 5.262,-3.676M80.517,73.998c-4.426,0 -6.594,3.262 -7.759,5.014c-0.125,0.187 -0.349,0.525 -0.55,0.801c-0.157,-0.145 -0.351,-0.338 -0.509,-0.497c-1.241,-1.241 -3.318,-3.318 -7.182,-3.318c-5.503,0 -8.483,5.404 -9.025,6.487c-1.109,2.221 -0.206,4.929 2.013,6.038c0.627,0.312 1.32,0.475 2.012,0.475c1.716,0 3.259,-0.953 4.026,-2.488c0.245,-0.491 0.785,-1.168 1.138,-1.456c0.167,0.137 0.442,0.413 0.655,0.625c1.241,1.241 3.318,3.318 7.182,3.318c4.409,0 6.572,-3.254 7.735,-5.002c0.16,-0.241 0.487,-0.733 0.715,-1.02c2.271,-0.226 4.05,-2.148 4.05,-4.478c-0.001,-2.48 -2.02,-4.499 -4.501,-4.499z"/><path fill="#40396e" stroke="none" stroke-linecap="butt" stroke-linejoin="miter" stroke-width="1" d="M13.5,18c0.097,0 0.195,0.01 0.294,0.03c2.146,0.428 6.206,2.333 6.206,6.47c0,3.389 -1.905,4.644 -3.296,5.56c-1.212,0.798 -1.704,1.173 -1.704,2.44c0,2.941 3.311,3.462 3.688,3.512c0.818,0.108 1.399,0.857 1.296,1.676c-0.095,0.757 -0.738,1.312 -1.482,1.312c-0.061,0 -0.121,-0.003 -0.183,-0.011c-2.185,-0.265 -6.319,-1.963 -6.319,-6.489c0,-2.934 1.765,-4.096 3.054,-4.945c1.214,-0.8 1.946,-1.282 1.946,-3.055c0,-2.739 -3.756,-3.521 -3.794,-3.529c-0.812,-0.162 -1.34,-0.953 -1.177,-1.765c0.143,-0.713 0.775,-1.206 1.471,-1.206M13.5,15v0c-2.136,0 -3.992,1.521 -4.412,3.616c-0.237,1.178 0,2.379 0.667,3.38c0.667,1.001 1.684,1.682 2.864,1.917c0.494,0.112 1.167,0.436 1.38,0.667c-0.001,0.025 -0.002,0.047 -0.003,0.067c-0.155,0.115 -0.4,0.276 -0.592,0.403c-1.43,0.941 -4.404,2.9 -4.404,7.45c0,5.757 4.643,8.943 8.957,9.467c0.189,0.023 0.367,0.033 0.545,0.033c2.258,0 4.175,-1.692 4.459,-3.936c0.309,-2.449 -1.431,-4.704 -3.88,-5.027c-0.34,-0.047 -0.729,-0.197 -0.94,-0.33c0.083,-0.056 0.16,-0.107 0.214,-0.142c1.507,-0.993 4.645,-3.06 4.645,-8.065c0,-5.283 -4.467,-8.583 -8.618,-9.412c-0.284,-0.058 -0.584,-0.088 -0.882,-0.088z"/><path fill="#d84178" stroke="none" stroke-linecap="butt" stroke-linejoin="miter" stroke-width="1" d="M44.499,41c-0.295,0 -0.593,-0.086 -0.853,-0.267c-0.681,-0.471 -0.851,-1.404 -0.381,-2.085v0c0.038,-0.057 3.877,-5.727 2.774,-11.449c-0.567,-2.946 -2.375,-5.453 -5.372,-7.451c-0.689,-0.459 -0.876,-1.391 -0.416,-2.08c0.46,-0.689 1.392,-0.875 2.08,-0.416c3.698,2.465 5.938,5.628 6.658,9.402c1.331,6.971 -3.069,13.428 -3.257,13.7c-0.29,0.42 -0.757,0.646 -1.233,0.646z"/><path fill="#f9b84f" stroke="none" stroke-linecap="butt" stroke-linejoin="miter" stroke-width="1" d="M51.498,48c-0.71,0 -1.341,-0.506 -1.474,-1.229c-0.149,-0.815 0.39,-1.597 1.205,-1.746c7.783,-1.431 16.389,-4.499 16.794,-6.787c0.22,-1.242 -0.501,-1.887 -2.323,-3.167c-1.727,-1.213 -3.875,-2.723 -3.697,-5.662c0.071,-1.181 0.638,-1.887 1.102,-2.272c1.507,-1.252 3.924,-0.952 6.483,-0.634c1.184,0.147 3.15,0.39 3.684,0.13c0.529,-0.89 0.227,-1.652 -0.625,-3.255c-0.812,-1.529 -1.923,-3.623 -0.357,-5.764c2.52,-3.446 10.278,-1.037 11.155,-0.75c0.542,0.178 1.555,0.509 1.555,1.636c0,0.829 -0.672,1.5 -1.5,1.5c-0.28,0 -0.543,-0.077 -0.767,-0.211c-1.665,-0.678 -7.097,-1.667 -8.022,-0.404c-0.396,0.542 -0.222,1.066 0.586,2.587c0.862,1.625 2.043,3.849 0.47,6.331c-1.169,1.845 -3.78,1.521 -6.549,1.178c-1.225,-0.152 -3.77,-0.469 -4.199,-0.033c0,0.002 -0.016,0.05 -0.021,0.143c-0.069,1.146 0.687,1.803 2.428,3.026c1.741,1.223 4.127,2.899 3.552,6.145c-0.966,5.456 -14.944,8.432 -19.206,9.214c-0.092,0.016 -0.184,0.024 -0.274,0.024z"/><path fill="#81c2f6" stroke="none" stroke-linecap="butt" stroke-linejoin="miter" stroke-width="1" d="M80.499,58c-0.295,0 -0.593,-0.086 -0.854,-0.268c-10.081,-6.992 -20.048,-2.106 -20.467,-1.895c-0.739,0.371 -1.642,0.078 -2.015,-0.66c-0.374,-0.738 -0.082,-1.638 0.654,-2.014c0.481,-0.246 11.948,-5.934 23.536,2.104c0.681,0.472 0.851,1.407 0.378,2.087c-0.29,0.421 -0.757,0.646 -1.232,0.646z"/><path fill="#d84178" stroke="none" stroke-linecap="butt" stroke-linejoin="miter" stroke-width="1" d="M59.516,85.999c-0.226,0 -0.454,-0.051 -0.67,-0.159c-0.741,-0.371 -1.041,-1.271 -0.671,-2.013c0.247,-0.494 2.525,-4.829 6.342,-4.829c2.621,0 3.974,1.353 5.061,2.439c0.939,0.939 1.561,1.561 2.939,1.561c1.138,0 1.751,-0.84 2.738,-2.324c1.089,-1.638 2.443,-3.676 5.262,-3.676c0.828,0 1.5,0.671 1.5,1.5c0,0.829 -0.672,1.5 -1.5,1.5c-1.154,0 -1.771,0.844 -2.764,2.337c-1.085,1.632 -2.436,3.663 -5.236,3.663c-2.621,0 -3.974,-1.353 -5.061,-2.439c-0.939,-0.939 -1.561,-1.561 -2.939,-1.561c-1.692,0 -3.247,2.348 -3.658,3.171c-0.263,0.525 -0.793,0.83 -1.343,0.83z"/><path fill="#f9b84f" stroke="none" stroke-linecap="butt" stroke-linejoin="miter" stroke-width="1" d="M18.502,39c-0.061,0 -0.121,-0.003 -0.183,-0.011c-2.185,-0.265 -6.319,-1.963 -6.319,-6.489c0,-2.934 1.765,-4.096 3.054,-4.945c1.214,-0.8 1.946,-1.282 1.946,-3.055c0,-2.739 -3.756,-3.521 -3.794,-3.529c-0.812,-0.162 -1.34,-0.953 -1.177,-1.765c0.163,-0.812 0.961,-1.34 1.765,-1.177c2.146,0.429 6.206,2.334 6.206,6.471c0,3.389 -1.905,4.644 -3.296,5.56c-1.212,0.798 -1.704,1.173 -1.704,2.44c0,2.941 3.311,3.462 3.688,3.512c0.818,0.108 1.399,0.857 1.296,1.676c-0.095,0.757 -0.738,1.312 -1.482,1.312z"/><path fill="#ff9dcb" stroke="none" stroke-linecap="butt" stroke-linejoin="miter" stroke-width="1" d="M64.773,61.471c3.124,-3.124 -0.833,-12.147 -8.839,-20.153c-8.006,-8.006 -17.028,-11.962 -20.152,-8.838c-0.296,0.297 -0.509,0.661 -0.681,1.058l-0.018,-0.018l-17.083,45.48l45.618,-16.783l-0.016,-0.016c0.444,-0.175 0.846,-0.405 1.171,-0.73z"/><path fill="#fff" stroke="none" stroke-linecap="butt" stroke-linejoin="miter" stroke-width="1" d="M41,41l-23,38l29,-33z" opacity=".5"/><ellipse cx="3.862" cy="68.588" fill="#40396e" stroke="none" stroke-linecap="butt" stroke-linejoin="miter" stroke-width="1" rx="7.805" ry="22.627" transform="rotate(-45.001)"/><path fill="#40396e" stroke="none" stroke-linecap="butt" stroke-linejoin="miter" stroke-width="1" d="M77.156,15.779c2.831,0 5.769,0.916 6.288,1.086c0.543,0.177 1.556,0.508 1.556,1.635c0,0.829 -0.672,1.5 -1.5,1.5c-0.28,0 -0.543,-0.077 -0.767,-0.211c-1.082,-0.441 -3.754,-1.012 -5.747,-1.012c-1.074,0 -1.952,0.166 -2.276,0.609c-0.396,0.542 -0.222,1.066 0.586,2.587c0.862,1.625 2.043,3.849 0.47,6.331c-0.712,1.124 -1.96,1.443 -3.452,1.443c-0.957,0 -2.015,-0.131 -3.097,-0.265c-0.765,-0.095 -2.044,-0.254 -3.002,-0.254c-0.576,0 -1.036,0.058 -1.197,0.221c0,0.002 -0.016,0.05 -0.021,0.143c-0.069,1.146 0.687,1.803 2.428,3.026c1.741,1.223 4.127,2.899 3.552,6.145c-0.581,3.281 -5.868,5.664 -10.917,7.214c1.434,1.84 2.622,3.66 3.548,5.39c1.281,-0.227 2.729,-0.382 4.298,-0.382c3.962,0 8.694,0.987 13.449,4.284c0.681,0.472 0.851,1.407 0.378,2.087c-0.292,0.419 -0.759,0.644 -1.234,0.644c-0.295,0 -0.593,-0.086 -0.854,-0.268c-4.167,-2.89 -8.312,-3.75 -11.773,-3.75c-1.057,0 -2.05,0.08 -2.961,0.207c1.224,3.212 1.282,5.86 -0.139,7.281c-0.325,0.325 -0.727,0.555 -1.171,0.73l0.016,0.016l-45.617,16.784l17.083,-45.48l0.018,0.018c0.172,-0.397 0.384,-0.762 0.681,-1.058c0.724,-0.724 1.764,-1.066 3.036,-1.066c1.859,0 4.212,0.733 6.787,2.077c0.546,-1.876 0.862,-4.077 0.435,-6.291c-0.567,-2.946 -2.375,-5.453 -5.372,-7.451c-0.689,-0.459 -0.876,-1.391 -0.416,-2.08c0.289,-0.435 0.765,-0.669 1.25,-0.669c0.286,0 0.575,0.082 0.83,0.252c3.698,2.465 5.938,5.628 6.658,9.402c0.584,3.057 0.065,6.014 -0.717,8.395c2.51,1.624 5.136,3.744 7.661,6.269c0.7,0.7 1.357,1.409 1.994,2.121c5.351,-1.548 9.807,-3.571 10.095,-5.201c0.22,-1.242 -0.501,-1.887 -2.323,-3.167c-1.727,-1.213 -3.875,-2.723 -3.697,-5.662c0.071,-1.181 0.638,-1.887 1.102,-2.272c0.838,-0.697 1.957,-0.913 3.226,-0.913c1.013,0 2.121,0.138 3.257,0.279c0.806,0.1 1.976,0.245 2.809,0.245c0.389,0 0.705,-0.032 0.875,-0.114c0.529,-0.89 0.227,-1.652 -0.625,-3.255c-0.812,-1.529 -1.923,-3.623 -0.357,-5.764c1.025,-1.404 2.92,-1.836 4.866,-1.836M77.156,12.779c-4.172,0 -6.266,1.667 -7.289,3.065c-2.103,2.877 -1.382,5.698 -0.535,7.605c-0.997,-0.12 -2.012,-0.225 -3.002,-0.225c-2.161,0 -3.844,0.525 -5.144,1.606c-1.298,1.076 -2.072,2.639 -2.179,4.398c-0.279,4.611 3.133,7.009 4.967,8.297c0.122,0.086 0.235,0.166 0.341,0.242c-0.983,0.561 -2.714,1.364 -5.459,2.251c-0.272,-0.286 -0.537,-0.557 -0.801,-0.822c-2.01,-2.01 -4.165,-3.853 -6.322,-5.412c0.601,-2.668 0.67,-5.248 0.203,-7.694c-0.876,-4.593 -3.548,-8.407 -7.941,-11.336c-0.74,-0.493 -1.603,-0.754 -2.493,-0.754c-1.509,0 -2.909,0.749 -3.746,2.003c-0.667,1 -0.905,2.201 -0.669,3.38c0.236,1.179 0.917,2.195 1.917,2.862c2.336,1.557 3.674,3.364 4.09,5.522c0.089,0.461 0.137,0.943 0.143,1.443c-1.595,-0.53 -3.073,-0.796 -4.42,-0.797c-2.655,0 -4.27,1.058 -5.158,1.945c-0.437,0.437 -0.802,0.948 -1.11,1.555c-0.11,0.172 -0.203,0.356 -0.276,0.552l-17.083,45.48c-0.413,1.098 -0.147,2.337 0.68,3.169c0.575,0.577 1.345,0.886 2.13,0.886c0.347,0 0.698,-0.06 1.035,-0.185l45.618,-16.783c0.166,-0.061 0.324,-0.136 0.474,-0.223c0.69,-0.321 1.27,-0.721 1.767,-1.217c1.188,-1.188 2.289,-3.224 1.85,-6.588c3.277,0.161 6.365,1.233 9.192,3.193c0.755,0.525 1.642,0.803 2.563,0.803c1.476,0 2.859,-0.724 3.699,-1.936c0.685,-0.986 0.944,-2.182 0.73,-3.366c-0.214,-1.182 -0.876,-2.21 -1.863,-2.895c-4.61,-3.198 -9.71,-4.819 -15.159,-4.819c-0.897,0 -1.801,0.045 -2.705,0.135c-0.129,-0.21 -0.26,-0.419 -0.394,-0.629c5.549,-2.231 8.545,-4.932 9.124,-8.205c0.512,-2.89 -0.486,-5.008 -1.786,-6.539c0.057,0.001 0.113,0.001 0.17,0.001c2.779,0 4.793,-0.955 5.986,-2.838c1.982,-3.126 1.189,-6.056 0.311,-8.01c1.174,0.156 2.325,0.43 2.868,0.623c0.624,0.313 1.316,0.478 2.02,0.478c2.481,0 4.5,-2.019 4.5,-4.5c0,-1.234 -0.471,-3.458 -3.625,-4.487c-0.627,-0.206 -3.935,-1.234 -7.219,-1.234z"/><path fill="#40396e" stroke="none" stroke-linecap="butt" stroke-linejoin="miter" stroke-width="1" d="M80.517,76.998c0.828,0 1.5,0.671 1.5,1.5c0,0.829 -0.672,1.5 -1.5,1.5c-1.154,0 -1.771,0.844 -2.764,2.337c-1.085,1.632 -2.436,3.663 -5.236,3.663c-2.621,0 -3.974,-1.353 -5.061,-2.439c-0.939,-0.939 -1.561,-1.561 -2.939,-1.561c-1.692,0 -3.247,2.348 -3.658,3.171c-0.263,0.525 -0.793,0.83 -1.343,0.83c-0.226,0 -0.454,-0.051 -0.67,-0.159c-0.741,-0.371 -1.041,-1.271 -0.671,-2.013c0.247,-0.494 2.525,-4.829 6.342,-4.829c2.621,0 3.974,1.353 5.061,2.439c0.939,0.939 1.561,1.561 2.939,1.561c1.138,0 1.751,-0.84 2.738,-2.324c1.089,-1.638 2.443,-3.676 5.262,-3.676M80.517,73.998c-4.426,0 -6.594,3.262 -7.759,5.014c-0.125,0.187 -0.349,0.525 -0.55,0.801c-0.157,-0.145 -0.351,-0.338 -0.509,-0.497c-1.241,-1.241 -3.318,-3.318 -7.182,-3.318c-5.503,0 -8.483,5.404 -9.025,6.487c-1.109,2.221 -0.206,4.929 2.013,6.038c0.627,0.312 1.32,0.475 2.012,0.475c1.716,0 3.259,-0.953 4.026,-2.488c0.245,-0.491 0.785,-1.168 1.138,-1.456c0.167,0.137 0.442,0.413 0.655,0.625c1.241,1.241 3.318,3.318 7.182,3.318c4.409,0 6.572,-3.254 7.735,-5.002c0.16,-0.241 0.487,-0.733 0.715,-1.02c2.271,-0.226 4.05,-2.148 4.05,-4.478c-0.001,-2.48 -2.02,-4.499 -4.501,-4.499z"/><path fill="#40396e" stroke="none" stroke-linecap="butt" stroke-linejoin="miter" stroke-width="1" d="M13.5,18c0.097,0 0.195,0.01 0.294,0.03c2.146,0.428 6.206,2.333 6.206,6.47c0,3.389 -1.905,4.644 -3.296,5.56c-1.212,0.798 -1.704,1.173 -1.704,2.44c0,2.941 3.311,3.462 3.688,3.512c0.818,0.108 1.399,0.857 1.296,1.676c-0.095,0.757 -0.738,1.312 -1.482,1.312c-0.061,0 -0.121,-0.003 -0.183,-0.011c-2.185,-0.265 -6.319,-1.963 -6.319,-6.489c0,-2.934 1.765,-4.096 3.054,-4.945c1.214,-0.8 1.946,-1.282 1.946,-3.055c0,-2.739 -3.756,-3.521 -3.794,-3.529c-0.812,-0.162 -1.34,-0.953 -1.177,-1.765c0.143,-0.713 0.775,-1.206 1.471,-1.206M13.5,15v0c-2.136,0 -3.992,1.521 -4.412,3.616c-0.237,1.178 0,2.379 0.667,3.38c0.667,1.001 1.684,1.682 2.864,1.917c0.494,0.112 1.167,0.436 1.38,0.667c-0.001,0.025 -0.002,0.047 -0.003,0.067c-0.155,0.115 -0.4,0.276 -0.592,0.403c-1.43,0.941 -4.404,2.9 -4.404,7.45c0,5.757 4.643,8.943 8.957,9.467c0.189,0.023 0.367,0.033 0.545,0.033c2.258,0 4.175,-1.692 4.459,-3.936c0.309,-2.449 -1.431,-4.704 -3.88,-5.027c-0.34,-0.047 -0.729,-0.197 -0.94,-0.33c0.083,-0.056 0.16,-0.107 0.214,-0.142c1.507,-0.993 4.645,-3.06 4.645,-8.065c0,-5.283 -4.467,-8.583 -8.618,-9.412c-0.284,-0.058 -0.584,-0.088 -0.882,-0.088z"/><path fill="#d84178" stroke="none" stroke-linecap="butt" stroke-linejoin="miter" stroke-width="1" d="M44.499,41c-0.295,0 -0.593,-0.086 -0.853,-0.267c-0.681,-0.471 -0.851,-1.404 -0.381,-2.085v0c0.038,-0.057 3.877,-5.727 2.774,-11.449c-0.567,-2.946 -2.375,-5.453 -5.372,-7.451c-0.689,-0.459 -0.876,-1.391 -0.416,-2.08c0.46,-0.689 1.392,-0.875 2.08,-0.416c3.698,2.465 5.938,5.628 6.658,9.402c1.331,6.971 -3.069,13.428 -3.257,13.7c-0.29,0.42 -0.757,0.646 -1.233,0.646z"/><path fill="#f9b84f" stroke="none" stroke-linecap="butt" stroke-linejoin="miter" stroke-width="1" d="M51.498,48c-0.71,0 -1.341,-0.506 -1.474,-1.229c-0.149,-0.815 0.39,-1.597 1.205,-1.746c7.783,-1.431 16.389,-4.499 16.794,-6.787c0.22,-1.242 -0.501,-1.887 -2.323,-3.167c-1.727,-1.213 -3.875,-2.723 -3.697,-5.662c0.071,-1.181 0.638,-1.887 1.102,-2.272c1.507,-1.252 3.924,-0.952 6.483,-0.634c1.184,0.147 3.15,0.39 3.684,0.13c0.529,-0.89 0.227,-1.652 -0.625,-3.255c-0.812,-1.529 -1.923,-3.623 -0.357,-5.764c2.52,-3.446 10.278,-1.037 11.155,-0.75c0.542,0.178 1.555,0.509 1.555,1.636c0,0.829 -0.672,1.5 -1.5,1.5c-0.28,0 -0.543,-0.077 -0.767,-0.211c-1.665,-0.678 -7.097,-1.667 -8.022,-0.404c-0.396,0.542 -0.222,1.066 0.586,2.587c0.862,1.625 2.043,3.849 0.47,6.331c-1.169,1.845 -3.78,1.521 -6.549,1.178c-1.225,-0.152 -3.77,-0.469 -4.199,-0.033c0,0.002 -0.016,0.05 -0.021,0.143c-0.069,1.146 0.687,1.803 2.428,3.026c1.741,1.223 4.127,2.899 3.552,6.145c-0.966,5.456 -14.944,8.432 -19.206,9.214c-0.092,0.016 -0.184,0.024 -0.274,0.024z"/><path fill="#81c2f6" stroke="none" stroke-linecap="butt" stroke-linejoin="miter" stroke-width="1" d="M80.499,58c-0.295,0 -0.593,-0.086 -0.854,-0.268c-10.081,-6.992 -20.048,-2.106 -20.467,-1.895c-0.739,0.371 -1.642,0.078 -2.015,-0.66c-0.374,-0.738 -0.082,-1.638 0.654,-2.014c0.481,-0.246 11.948,-5.934 23.536,2.104c0.681,0.472 0.851,1.407 0.378,2.087c-0.29,0.421 -0.757,0.646 -1.232,0.646z"/><path fill="#d84178" stroke="none" stroke-linecap="butt" stroke-linejoin="miter" stroke-width="1" d="M59.516,85.999c-0.226,0 -0.454,-0.051 -0.67,-0.159c-0.741,-0.371 -1.041,-1.271 -0.671,-2.013c0.247,-0.494 2.525,-4.829 6.342,-4.829c2.621,0 3.974,1.353 5.061,2.439c0.939,0.939 1.561,1.561 2.939,1.561c1.138,0 1.751,-0.84 2.738,-2.324c1.089,-1.638 2.443,-3.676 5.262,-3.676c0.828,0 1.5,0.671 1.5,1.5c0,0.829 -0.672,1.5 -1.5,1.5c-1.154,0 -1.771,0.844 -2.764,2.337c-1.085,1.632 -2.436,3.663 -5.236,3.663c-2.621,0 -3.974,-1.353 -5.061,-2.439c-0.939,-0.939 -1.561,-1.561 -2.939,-1.561c-1.692,0 -3.247,2.348 -3.658,3.171c-0.263,0.525 -0.793,0.83 -1.343,0.83z"/><path fill="#f9b84f" stroke="none" stroke-linecap="butt" stroke-linejoin="miter" stroke-width="1" d="M18.502,39c-0.061,0 -0.121,-0.003 -0.183,-0.011c-2.185,-0.265 -6.319,-1.963 -6.319,-6.489c0,-2.934 1.765,-4.096 3.054,-4.945c1.214,-0.8 1.946,-1.282 1.946,-3.055c0,-2.739 -3.756,-3.521 -3.794,-3.529c-0.812,-0.162 -1.34,-0.953 -1.177,-1.765c0.163,-0.812 0.961,-1.34 1.765,-1.177c2.146,0.429 6.206,2.334 6.206,6.471c0,3.389 -1.905,4.644 -3.296,5.56c-1.212,0.798 -1.704,1.173 -1.704,2.44c0,2.941 3.311,3.462 3.688,3.512c0.818,0.108 1.399,0.857 1.296,1.676c-0.095,0.757 -0.738,1.312 -1.482,1.312z"/><circle cx="29.02" cy="18.016" r="3.48" fill="none" stroke="#40396e" stroke-linecap="round" stroke-linejoin="round" stroke-width="3"/><circle cx="18.506" cy="49.5" r="3" fill="none" stroke="#40396e" stroke-linecap="round" stroke-linejoin="round" stroke-width="3"/><circle cx="57.506" cy="18.5" r="3" fill="none" stroke="#40396e" stroke-linecap="round" stroke-linejoin="round" stroke-width="3"/><circle cx="82.001" cy="38" r="3.49" fill="none" stroke="#40396e" stroke-linecap="round" stroke-linejoin="round" stroke-width="3"/><circle cx="72.506" cy="67.5" r="3" fill="none" stroke="#40396e" stroke-linecap="round" stroke-linejoin="round" stroke-width="3"/><circle cx="50.006" cy="78" r="4" fill="none" stroke="#40396e" stroke-linecap="round" stroke-linejoin="round" stroke-width="3"/><circle cx="35.506" cy="83.5" r="3" fill="none" stroke="#40396e" stroke-linecap="round" stroke-linejoin="round" stroke-width="3"/></g></g></svg>