<svg xmlns="http://www.w3.org/2000/svg" xmlns:xlink="http://www.w3.org/1999/xlink" viewBox="0,0,256,256" width="100px" height="100px" fill-rule="nonzero"><g fill="none" fill-rule="nonzero" stroke="none" stroke-width="1" stroke-linecap="butt" stroke-linejoin="miter" stroke-miterlimit="10" stroke-dasharray="" stroke-dashoffset="0" font-family="none" font-weight="none" font-size="none" text-anchor="none" style="mix-blend-mode: normal"><g transform="scale(2.56,2.56)"><path d="M22.5,93c-3.584,0 -6.5,-2.916 -6.5,-6.5v-69c0,-3.584 2.916,-6.5 6.5,-6.5h51c3.584,0 6.5,2.916 6.5,6.5v24.969l5.846,4.291c1.663,1.221 2.654,3.18 2.654,5.24c0,2.06 -0.991,4.019 -2.652,5.239l-5.848,4.292v24.969c0,3.584 -2.916,6.5 -6.5,6.5z" fill="#000000" opacity="0.35"></path><path d="M20.5,91c-3.584,0 -6.5,-2.916 -6.5,-6.5v-69c0,-3.584 2.916,-6.5 6.5,-6.5h51c3.584,0 6.5,2.916 6.5,6.5v24.969l5.846,4.291c1.663,1.221 2.654,3.18 2.654,5.24c0,2.06 -0.991,4.019 -2.652,5.239l-5.848,4.292v24.969c0,3.584 -2.916,6.5 -6.5,6.5z" fill="#f2f2f2"></path><path d="M71.5,15.5v69h-51v-69z" fill="#ff9dcb"></path><path d="M77.454,50l-17.167,-12.955v7.955h-24v10h24v7.955z" fill="#914569"></path><path d="M71.5,86h-51c-0.829,0 -1.5,-0.671 -1.5,-1.5v-69c0,-0.829 0.671,-1.5 1.5,-1.5h51c0.829,0 1.5,0.671 1.5,1.5v27.502l7.888,5.789c0.384,0.282 0.612,0.731 0.612,1.209c0,0.478 -0.228,0.927 -0.612,1.209l-7.888,5.789v27.502c0,0.829 -0.671,1.5 -1.5,1.5zM22,83h48v-26.762c0,-0.478 0.228,-0.927 0.612,-1.209l6.853,-5.029l-6.853,-5.029c-0.384,-0.283 -0.612,-0.732 -0.612,-1.209v-26.762h-48z" fill="#40396e"></path></g></g></svg>