<svg xmlns="http://www.w3.org/2000/svg" xmlns:xlink="http://www.w3.org/1999/xlink" viewBox="0,0,256,256" width="100px" height="100px" fill-rule="nonzero"><g fill-opacity="0" fill="#dddddd" fill-rule="nonzero" stroke="none" stroke-width="1" stroke-linecap="butt" stroke-linejoin="miter" stroke-miterlimit="10" stroke-dasharray="" stroke-dashoffset="0" font-family="none" font-weight="none" font-size="none" text-anchor="none" style="mix-blend-mode: normal"><path d="M0,256v-256h256v256z" id="bgRectangle"></path></g><g fill="none" fill-rule="nonzero" stroke="none" stroke-width="1" stroke-linecap="butt" stroke-linejoin="miter" stroke-miterlimit="10" stroke-dasharray="" stroke-dashoffset="0" font-family="none" font-weight="none" font-size="none" text-anchor="none" style="mix-blend-mode: normal"><g transform="scale(2.56,2.56)"><path d="M51,93.013c-1.571,0 -2.787,-0.558 -3.971,-1.591l-34.554,-30.18l-0.614,-0.581c-6.079,-5.505 -9.866,-13.361 -9.866,-21.546c0,-16.051 13.059,-29.109 29.11,-29.109c7.46,0 14.544,2.864 19.881,7.868c5.337,-5.003 12.421,-7.868 19.882,-7.868c16.051,0 29.109,13.059 29.109,29.109c0,8.208 -3.515,16.083 -9.645,21.609l-0.739,0.666c-0.096,0.096 -0.195,0.188 -0.297,0.278l-34.018,29.74c-1.186,1.034 -2.705,1.605 -4.278,1.605z" fill="#000000" opacity="0.35"></path><path d="M49,91.013c-1.571,0 -3.089,-0.569 -4.273,-1.602l-34.555,-30.181l-0.614,-0.581c-6.079,-5.505 -9.564,-13.351 -9.564,-21.536c0,-16.051 13.059,-29.109 29.11,-29.109c7.46,0 14.544,2.864 19.881,7.868c5.337,-5.003 12.421,-7.868 19.882,-7.868c16.051,0 29.109,13.059 29.109,29.109c0,8.208 -3.515,16.083 -9.645,21.609l-0.739,0.666c-0.096,0.096 -0.195,0.188 -0.297,0.278l-34.018,29.74c-1.185,1.036 -2.704,1.607 -4.277,1.607z" fill="#f2f2f2"></path><path d="M92.476,37.114c0,-13.039 -10.57,-23.609 -23.609,-23.609c-8.359,0 -15.686,4.356 -19.882,10.91c-4.195,-6.554 -11.522,-10.91 -19.882,-10.91c-13.039,0 -23.609,10.57 -23.609,23.609c0,6.963 3.032,13.202 7.827,17.523l-0.031,0.02l35.71,31.177l35.68,-31.178l-0.031,-0.02c4.795,-4.32 7.827,-10.559 7.827,-17.522z" fill="#ff9dcb"></path><g fill="#40396e"><path d="M49,86.013c-0.352,0 -0.704,-0.124 -0.987,-0.37l-34.484,-30.12c-0.016,-0.014 -0.031,-0.028 -0.047,-0.043l-0.524,-0.499c-5.05,-4.551 -7.963,-11.074 -7.963,-17.868c0,-13.294 10.815,-24.109 24.11,-24.109c7.994,0 15.37,3.912 19.881,10.504c4.512,-6.592 11.888,-10.504 19.882,-10.504c13.294,0 24.109,10.815 24.109,24.109c0,6.794 -2.913,13.316 -7.992,17.895l-0.864,0.778c-0.039,0.043 -0.08,0.084 -0.124,0.123l-34.01,29.733c-0.283,0.247 -0.635,0.371 -0.987,0.371zM15.525,53.284l33.474,29.237l32.906,-28.768c0.029,-0.031 0.06,-0.062 0.092,-0.091l0.978,-0.881c4.449,-4.01 7.001,-9.721 7.001,-15.667c0,-11.64 -9.47,-21.109 -21.109,-21.109c-7.22,0 -13.865,3.648 -17.776,9.758l-0.842,1.316c-0.551,0.861 -1.976,0.861 -2.526,0l-0.842,-1.316c-3.911,-6.11 -10.556,-9.758 -17.776,-9.758c-11.64,0 -21.11,9.47 -21.11,21.109c0,5.946 2.552,11.656 7.001,15.667z"></path></g></g></g></svg>