<svg xmlns="http://www.w3.org/2000/svg" xmlns:xlink="http://www.w3.org/1999/xlink" viewBox="0,0,256,256" width="100px" height="100px" fill-rule="nonzero"><g fill="none" fill-rule="nonzero" stroke="none" stroke-width="1" stroke-linecap="butt" stroke-linejoin="miter" stroke-miterlimit="10" stroke-dasharray="" stroke-dashoffset="0" font-family="none" font-weight="none" font-size="none" text-anchor="none" style="mix-blend-mode: normal"><g transform="scale(2.56,2.56)"><path d="M88.266,60.615l-2.83,-2.83c-0.851,-0.852 -1.809,-1.553 -2.841,-2.091c0.172,-6.21 -1.832,-12.177 -2.101,-12.943l-2.494,-7.491v-4.6c0,-3.837 -1.524,-7.379 -4.095,-9.489c-1.611,-1.311 -3.522,-2.003 -5.526,-2.003c-0.571,0 -1.147,0.059 -1.681,0.168c-1.39,0.275 -2.679,0.76 -3.852,1.375c-0.048,-0.165 -0.097,-0.33 -0.158,-0.492c-3.487,-9.303 -9.708,-14.579 -19.019,-16.131c-0.353,-0.059 -0.711,-0.088 -1.067,-0.088c-3.192,0 -5.888,2.285 -6.41,5.428c-0.106,0.637 -0.117,1.274 -0.039,1.897c-1.331,-0.559 -2.771,-0.854 -4.257,-0.854c-2.942,0 -5.704,1.148 -7.746,3.199c-0.009,0.01 -0.019,0.019 -0.027,0.027c-0.697,-0.13 -1.407,-0.197 -2.123,-0.197c-3.083,0 -5.974,1.204 -8.118,3.367c-2.788,2.777 -3.876,6.633 -3.194,10.254c-0.001,0.001 -0.002,0.002 -0.003,0.004c-3.595,3.595 -4.178,9.079 -1.742,13.294c-2.654,3.801 -2.592,8.997 0.367,12.783c0.877,1.114 1.879,2.383 2.95,3.731c-2.458,1.476 -3.732,4.467 -2.908,7.353c2.579,9.026 8.402,15.073 15.938,16.58c0.429,0.089 0.87,0.134 1.314,0.134c1.994,0 3.809,-0.926 5.014,-2.392c2.656,2.082 5.892,4.293 9.211,6.074c2.586,1.393 4.933,2.376 7.092,2.965c0.542,1.786 1.515,3.439 2.864,4.788l2.83,2.83c2.169,2.17 5.058,3.364 8.135,3.364c3.088,0 5.979,-1.199 8.125,-3.364l18.392,-18.391c4.472,-4.474 4.475,-11.764 -0.001,-16.259zM55.136,29.147c0.091,-0.089 0.184,-0.178 0.269,-0.273c0.117,0.022 0.232,0.044 0.351,0.059c-0.07,0.209 -0.144,0.42 -0.206,0.628z" fill="#1d1d1b" opacity="0.35"></path><path d="M86.266,58.615l-2.83,-2.83c-0.851,-0.852 -1.809,-1.553 -2.841,-2.091c0.172,-6.21 -1.832,-12.177 -2.101,-12.943l-2.494,-7.491v-4.6c0,-3.837 -1.524,-7.379 -4.095,-9.489c-1.611,-1.311 -3.522,-2.003 -5.526,-2.003c-0.571,0 -1.147,0.059 -1.681,0.168c-1.39,0.275 -2.679,0.76 -3.852,1.375c-0.048,-0.165 -0.097,-0.33 -0.158,-0.492c-3.487,-9.303 -9.708,-14.579 -19.019,-16.131c-0.353,-0.059 -0.711,-0.088 -1.067,-0.088c-3.192,0 -5.888,2.285 -6.41,5.428c-0.106,0.637 -0.117,1.274 -0.039,1.897c-1.331,-0.559 -2.771,-0.854 -4.257,-0.854c-2.942,0 -5.704,1.148 -7.746,3.199c-0.009,0.01 -0.019,0.019 -0.027,0.027c-0.697,-0.13 -1.407,-0.197 -2.123,-0.197c-3.083,0 -5.974,1.204 -8.118,3.367c-2.788,2.778 -3.876,6.633 -3.195,10.254c-0.001,0.001 -0.002,0.002 -0.003,0.004c-3.594,3.595 -4.177,9.079 -1.741,13.294c-2.654,3.801 -2.592,8.997 0.367,12.783c0.877,1.114 1.879,2.383 2.95,3.731c-2.458,1.476 -3.732,4.467 -2.908,7.353c2.579,9.026 8.402,15.073 15.938,16.58c0.429,0.089 0.87,0.134 1.314,0.134c1.994,0 3.809,-0.926 5.014,-2.392c2.656,2.082 5.892,4.293 9.211,6.074c2.586,1.393 4.933,2.376 7.092,2.965c0.542,1.786 1.515,3.439 2.864,4.788l2.83,2.83c2.169,2.17 5.058,3.364 8.135,3.364c3.088,0 5.979,-1.199 8.125,-3.364l18.392,-18.391c4.472,-4.474 4.475,-11.764 -0.001,-16.259zM53.136,27.147c0.091,-0.089 0.184,-0.178 0.269,-0.273c0.117,0.022 0.232,0.044 0.351,0.059c-0.07,0.209 -0.144,0.42 -0.206,0.628z" fill="#f2f2f2"></path><path d="M81.667,63.212l-3.282,-3.282c-1.524,-1.524 -3.781,-1.842 -5.63,-0.986c3.074,-5.633 -0.428,-16.141 -0.428,-16.141l-2.827,-8.486v-5.657c0,-2.828 -1.542,-5.348 -3.536,-4.95c-2.773,0.555 -5.016,2.747 -5.657,4.243c-2.121,4.95 -0.707,10.607 -2.121,13.435l-25.102,-25.102c-1.757,-1.757 -4.607,-1.757 -6.364,0c-1.757,1.757 -1.757,4.607 0,6.364l-3.182,-3.182c-1.953,-1.953 -5.118,-1.953 -7.071,0c-1.953,1.953 -1.953,5.118 0,7.071l3.182,3.182c-1.757,-1.757 -4.607,-1.757 -6.364,0c-1.757,1.757 -1.757,4.607 0,6.364l5.474,5.475c-1.657,-1.657 -4.343,-1.657 -5.999,0c-1.519,1.519 -1.666,3.931 -0.337,5.619c4.376,5.562 13.745,17.346 17.479,21.08c4.693,4.693 17.006,14.46 21.889,11.849c-0.661,1.777 -0.289,3.851 1.139,5.279l3.282,3.282c1.953,1.953 5.118,1.953 7.071,0l18.385,-18.385c1.952,-1.954 1.952,-5.12 -0.001,-7.072z" fill="#f7be36"></path><path d="M81.667,70.283l-18.384,18.384c-1.953,1.953 -5.118,1.953 -7.071,0l-1.779,-1.779c-1.953,-1.953 -1.953,-5.118 0,-7.071l18.385,-18.385c1.953,-1.953 5.118,-1.953 7.071,0l1.779,1.779c1.952,1.953 1.952,5.119 -0.001,7.072z" fill="#ff9dcb"></path><path d="M42.662,36.438l-15.33,-15.298c-0.587,-0.585 -1.536,-0.586 -2.121,0.002c-0.585,0.586 -0.584,1.536 0.002,2.121l15.33,15.298c0.293,0.293 0.676,0.439 1.06,0.439c0.385,0 0.769,-0.146 1.062,-0.44c0.584,-0.587 0.583,-1.537 -0.003,-2.122z" fill="#40396e" opacity="0.35"></path><path d="M20.154,28.191c-0.59,-0.58 -1.541,-0.574 -2.121,0.018c-0.581,0.591 -0.573,1.541 0.018,2.121l15.5,15.239c0.292,0.287 0.672,0.431 1.052,0.431c0.388,0 0.776,-0.149 1.069,-0.448c0.581,-0.591 0.573,-1.541 -0.018,-2.121z" fill="#40396e" opacity="0.35"></path><path d="M19.663,40.439c-0.586,-0.586 -1.535,-0.586 -2.121,0c-0.586,0.586 -0.586,1.535 0,2.121l11,11c0.293,0.294 0.677,0.44 1.061,0.44c0.384,0 0.768,-0.146 1.061,-0.439c0.586,-0.586 0.586,-1.535 0,-2.121z" fill="#40396e" opacity="0.35"></path><path d="M24.896,71.029c-4.667,-0.934 -8.073,-4.717 -9.852,-10.941c-0.229,-0.797 -1.061,-1.259 -1.854,-1.03c-0.797,0.228 -1.258,1.058 -1.03,1.854c2.077,7.27 6.392,11.907 12.148,13.059c0.099,0.02 0.199,0.029 0.296,0.029c0.7,0 1.326,-0.493 1.469,-1.206c0.163,-0.813 -0.364,-1.603 -1.177,-1.765z" fill="#40396e"></path><path d="M40.967,13.045c-0.813,-0.199 -1.619,0.288 -1.819,1.091c-0.201,0.804 0.287,1.618 1.091,1.819c1.291,0.323 2.458,0.885 3.461,1.642l1.806,1.806c0.757,1.003 1.32,2.171 1.642,3.461c0.169,0.681 0.782,1.136 1.454,1.136c0.12,0 0.243,-0.015 0.365,-0.045c0.804,-0.201 1.292,-1.016 1.091,-1.819c-1.139,-4.554 -4.537,-7.952 -9.091,-9.091z" fill="#40396e"></path><path d="M56.007,19.974c-2.845,-7.588 -7.662,-11.704 -15.157,-12.953c-0.817,-0.136 -1.591,0.415 -1.727,1.232c-0.137,0.817 0.416,1.591 1.232,1.727c6.418,1.069 10.379,4.477 12.843,11.047c0.226,0.602 0.797,0.973 1.405,0.973c0.175,0 0.354,-0.03 0.526,-0.096c0.776,-0.291 1.169,-1.155 0.878,-1.93z" fill="#40396e"></path><circle cx="60.5" cy="82" r="2.5" fill="#40396e"></circle><path d="M14.649,46.149c-0.734,-0.734 -0.727,-1.931 0.017,-2.675c0.744,-0.744 1.941,-0.751 2.675,-0.017c0.733,0.734 -1.958,3.426 -2.692,2.692z" fill="#f7be36"></path><path d="M15.181,34.578c-0.828,-0.827 -0.819,-2.177 0.019,-3.015c0.838,-0.838 2.188,-0.847 3.015,-0.019c0.828,0.827 -2.206,3.861 -3.034,3.034z" fill="#f7be36"></path><path d="M28.615,21.15c-0.828,-0.827 -0.819,-2.177 0.019,-3.015c0.838,-0.838 2.188,-0.847 3.015,-0.019c0.828,0.826 -2.206,3.861 -3.034,3.034z" fill="#f7be36"></path><path d="M18.541,25.032c-0.952,-0.952 -0.942,-2.505 0.021,-3.469c0.964,-0.964 2.517,-0.974 3.469,-0.022c0.952,0.951 -2.538,4.442 -3.49,3.491z" fill="#f7be36"></path><path d="M59.747,91.632c-1.736,0 -3.368,-0.677 -4.596,-1.904l-2.829,-2.828c-1.52,-1.519 -2.128,-3.609 -1.825,-5.586c-0.02,0 -0.038,0 -0.057,0c-2.397,0 -5.486,-1.012 -9.243,-3.032c-5.045,-2.713 -9.941,-6.548 -12.355,-8.963c-3.71,-3.709 -12.618,-14.883 -17.598,-21.213c-1.796,-2.281 -1.6,-5.552 0.455,-7.606c0.702,-0.702 1.542,-1.184 2.433,-1.445l-1.907,-1.908c-2.34,-2.34 -2.34,-6.146 0,-8.485c0.767,-0.767 1.704,-1.301 2.727,-1.565c-2.068,-2.552 -1.917,-6.316 0.455,-8.688c1.228,-1.229 2.86,-1.904 4.597,-1.904c1.508,0 2.938,0.51 4.091,1.448c0.266,-1.022 0.799,-1.959 1.565,-2.726c2.34,-2.341 6.146,-2.34 8.485,0l23.198,23.197c0.062,-0.715 0.089,-1.505 0.116,-2.314c0.091,-2.704 0.194,-5.771 1.47,-8.746c0.858,-2.002 3.513,-4.478 6.742,-5.123c1.082,-0.217 2.173,0.071 3.074,0.811c1.391,1.137 2.255,3.288 2.255,5.608v5.414l2.751,8.254c0.149,0.429 3.037,8.898 1.309,15.099c1.746,-0.089 3.512,0.566 4.84,1.896l2.829,2.829c2.534,2.534 2.534,6.657 0,9.191l-18.386,18.385c-1.228,1.227 -2.86,1.904 -4.596,1.904zM53.383,77.268c0.384,0 0.768,0.146 1.061,0.439c0.586,0.585 0.586,1.535 0,2.121c-1.364,1.365 -1.364,3.586 0,4.95l2.829,2.828c1.322,1.322 3.627,1.322 4.949,0l18.386,-18.385c1.364,-1.364 1.364,-3.585 0,-4.949l-2.829,-2.829c-1.365,-1.363 -3.585,-1.363 -4.95,0c-0.586,0.586 -1.535,0.586 -2.121,0c-0.586,-0.586 -0.586,-1.535 0,-2.121c3.507,-3.507 1.336,-12.759 0.204,-16.028l-2.834,-8.502c-0.052,-0.153 -0.078,-0.313 -0.078,-0.475v-5.657c0,-1.609 -0.6,-2.834 -1.157,-3.291c-0.264,-0.216 -0.443,-0.215 -0.584,-0.188c-2.234,0.447 -4.091,2.24 -4.572,3.363c-1.054,2.458 -1.147,5.226 -1.229,7.666c-0.078,2.297 -0.145,4.28 -0.929,5.849c-0.216,0.432 -0.626,0.732 -1.102,0.81c-0.473,0.077 -0.96,-0.079 -1.301,-0.42l-25.103,-25.102c-1.169,-1.169 -3.072,-1.171 -4.243,0c-0.566,0.566 -0.878,1.319 -0.878,2.121c0,0.802 0.312,1.555 0.878,2.121c0.293,0.293 0.439,0.677 0.439,1.061c0,0.384 -0.146,0.768 -0.439,1.061c-0.586,0.586 -1.535,0.586 -2.121,0l-3.182,-3.182c-1.322,-1.322 -3.628,-1.321 -4.95,0c-1.364,1.364 -1.364,3.585 0,4.95l3.183,3.182v0c0.586,0.586 0.586,1.535 0,2.121c-0.586,0.586 -1.535,0.586 -2.121,0v0c-1.134,-1.133 -3.109,-1.133 -4.243,0c-0.566,0.567 -0.879,1.32 -0.879,2.122c0,0.801 0.313,1.554 0.879,2.121l5.475,5.475c0.293,0.293 0.439,0.677 0.439,1.061c0,0.384 -0.146,0.768 -0.439,1.061c-0.586,0.586 -1.535,0.586 -2.121,0c-1.037,-1.037 -2.842,-1.037 -3.879,0c-0.981,0.981 -1.075,2.542 -0.219,3.63c3.977,5.055 13.627,17.213 17.361,20.947c2.265,2.265 6.877,5.872 11.655,8.441c4.791,2.577 8.415,3.35 9.701,2.071c0.001,-0.001 0.002,-0.002 0.003,-0.003v0c0.293,-0.294 0.677,-0.44 1.061,-0.44z" fill="#40396e"></path></g></g></svg>