<svg xmlns="http://www.w3.org/2000/svg" xmlns:xlink="http://www.w3.org/1999/xlink" viewBox="0,0,256,256" width="100px" height="100px" fill-rule="nonzero"><g fill="none" fill-rule="nonzero" stroke="none" stroke-width="1" stroke-linecap="butt" stroke-linejoin="miter" stroke-miterlimit="10" stroke-dasharray="" stroke-dashoffset="0" font-family="none" font-weight="none" font-size="none" text-anchor="none" style="mix-blend-mode: normal"><g transform="scale(2.56,2.56)"><path d="M41.5,94c-11.9,0 -21.5,-8.3 -21.5,-18.5c0,-10.2 9.6,-18.5 21.5,-18.5c2.9,0 5.8,0.5 8.5,1.5v-30.9c0,-3.2 1.7,-6.1 4.6,-7.5l17.9,-9.4c1.2,-0.6 2.6,-1 3.9,-1c1.5,0 3.1,0.4 4.4,1.2c2.6,1.6 4.1,4.3 4.1,7.3v13.6c0,3 -1.6,5.9 -4.3,7.4l-17.6,10c0,8.1 0,26.2 0,26.3c0,10.2 -9.6,18.5 -21.5,18.5z" fill="#000000" opacity="0.35"></path><path d="M39.5,92c-11.9,0 -21.5,-8.3 -21.5,-18.5c0,-10.2 9.6,-18.5 21.5,-18.5c2.9,0 5.8,0.5 8.5,1.5v-30.9c0,-3.2 1.7,-6.1 4.6,-7.5l17.9,-9.4c1.2,-0.6 2.6,-1 3.9,-1c1.5,0 3.1,0.4 4.4,1.2c2.6,1.6 4.1,4.3 4.1,7.3v13.6c0,3 -1.6,5.9 -4.3,7.4l-17.6,10c0,8.1 0,26.2 0,26.3c0,10.2 -9.6,18.5 -21.5,18.5z" fill="#f2f2f2"></path><ellipse cx="39.2" cy="73.5" rx="14" ry="10.7" fill="#ff9dcb"></ellipse><path d="M54.5,25v17.1l21.3,-10.5v-17.1z" fill="#ff9dcb"></path><path d="M39.5,87c-9.1,0 -16.5,-6.1 -16.5,-13.5c0,-7.4 7.4,-13.5 16.5,-13.5c9.1,0 16.5,6.1 16.5,13.5c0,7.4 -7.4,13.5 -16.5,13.5zM39.5,63c-7.4,0 -13.5,4.7 -13.5,10.5c0,5.8 6.1,10.5 13.5,10.5c7.4,0 13.5,-4.7 13.5,-10.5c0,-5.8 -6.1,-10.5 -13.5,-10.5z" fill="#40396e"></path><path d="M54.5,75.2c-0.8,0 -1.5,-0.7 -1.5,-1.5v-48.1c0,-1.3 0.7,-2.5 1.9,-3.1l17.9,-9.4c1.1,-0.6 2.4,-0.5 3.4,0.1c1.1,0.6 1.7,1.8 1.7,3v13.6c0,1.3 -0.7,2.4 -1.8,3l-20.1,11.5v29.3c0,0.9 -0.7,1.6 -1.5,1.6zM74.4,15.7c-0.1,0 -0.1,0 -0.2,0.1l-17.9,9.4c-0.2,0.1 -0.3,0.3 -0.3,0.4v15.3l18.7,-10.6c0.2,-0.1 0.3,-0.3 0.3,-0.4v-13.7c0,-0.2 -0.2,-0.4 -0.2,-0.4c-0.2,-0.1 -0.3,-0.1 -0.4,-0.1z" fill="#40396e"></path></g></g></svg>