<svg xmlns="http://www.w3.org/2000/svg" xmlns:xlink="http://www.w3.org/1999/xlink" viewBox="0,0,256,256" width="100px" height="100px" fill-rule="nonzero"><g fill="none" fill-rule="nonzero" stroke="none" stroke-width="1" stroke-linecap="butt" stroke-linejoin="miter" stroke-miterlimit="10" stroke-dasharray="" stroke-dashoffset="0" font-family="none" font-weight="none" font-size="none" text-anchor="none" style="mix-blend-mode: normal"><g transform="scale(2.56,2.56)"><path d="M76,94c-10.7,0 -19.465,-8.446 -19.977,-19.022l-16.16,-6.885c-3.411,2.512 -7.58,3.907 -11.863,3.907c-11.028,0 -20,-8.972 -20,-20c0,-11.028 8.972,-20 20,-20c4.283,0 8.451,1.395 11.863,3.906l16.16,-6.884c0.512,-10.576 9.277,-19.022 19.977,-19.022c11.028,0 20,8.972 20,20c0,11.028 -8.972,20 -20,20c-3.09,0 -6.092,-0.704 -8.822,-2.055l-9.518,4.055l9.518,4.055c2.73,-1.351 5.732,-2.055 8.822,-2.055c11.028,0 20,8.972 20,20c0,11.028 -8.972,20 -20,20z" fill="#000000" opacity="0.35"></path><path d="M74,92c-10.7,0 -19.465,-8.446 -19.977,-19.022l-16.16,-6.885c-3.411,2.512 -7.58,3.907 -11.863,3.907c-11.028,0 -20,-8.972 -20,-20c0,-11.028 8.972,-20 20,-20c4.283,0 8.451,1.395 11.863,3.906l16.16,-6.884c0.512,-10.576 9.277,-19.022 19.977,-19.022c11.028,0 20,8.972 20,20c0,11.028 -8.972,20 -20,20c-3.09,0 -6.092,-0.704 -8.822,-2.055l-9.518,4.055l9.518,4.055c2.73,-1.351 5.732,-2.055 8.822,-2.055c11.028,0 20,8.972 20,20c0,11.028 -8.972,20 -20,20z" fill="#f2f2f2"></path><circle cx="74" cy="28" r="13.5" fill="#ff9dcb"></circle><circle cx="74" cy="72" r="13.5" fill="#ff9dcb"></circle><circle cx="26" cy="50" r="13.5" fill="#ff9dcb"></circle><rect x="3.53723" y="52.53451" transform="rotate(-23.074)" width="55" height="8.781" fill="#ff9dcb"></rect><rect x="-97.72869" y="-39.46776" transform="rotate(-156.926)" width="55" height="8.781" fill="#ff9dcb"></rect><g fill="#40396e"><path d="M74,87c-8.271,0 -15,-6.729 -15,-15c0,-0.741 0.061,-1.498 0.18,-2.26l-22.248,-9.478c-2.833,3.025 -6.757,4.738 -10.932,4.738c-8.271,0 -15,-6.729 -15,-15c0,-8.271 6.729,-15 15,-15c4.175,0 8.099,1.713 10.932,4.738l22.248,-9.478c-0.119,-0.762 -0.18,-1.519 -0.18,-2.26c0,-8.271 6.729,-15 15,-15c8.271,0 15,6.729 15,15c0,8.271 -6.729,15 -15,15c-3.058,0 -5.97,-0.909 -8.476,-2.637l-22.621,9.637l22.621,9.637c2.506,-1.728 5.418,-2.637 8.476,-2.637c8.271,0 15,6.729 15,15c0,8.271 -6.729,15 -15,15zM36.518,56.954c0.197,0 0.396,0.039 0.587,0.12l24.371,10.383c0.674,0.287 1.042,1.019 0.87,1.73c-0.23,0.957 -0.346,1.903 -0.346,2.813c0,6.617 5.383,12 12,12c6.617,0 12,-5.383 12,-12c0,-6.617 -5.383,-12 -12,-12c-2.683,0 -5.227,0.876 -7.356,2.535c-0.431,0.335 -1.008,0.41 -1.51,0.196l-26.23,-11.175c-0.562,-0.239 -0.922,-0.794 -0.912,-1.404c0.001,-0.027 0.006,-0.137 0.008,-0.165l-0.008,-0.14c-0.01,-0.61 0.351,-1.165 0.912,-1.404l26.23,-11.175c0.5,-0.214 1.078,-0.139 1.51,0.196c2.129,1.66 4.673,2.536 7.356,2.536c6.617,0 12,-5.383 12,-12c0,-6.617 -5.383,-12 -12,-12c-6.617,0 -12,5.383 -12,12c0,0.91 0.116,1.856 0.346,2.812c0.172,0.712 -0.196,1.443 -0.87,1.73l-24.372,10.383c-0.618,0.264 -1.335,0.083 -1.756,-0.439c-2.295,-2.851 -5.702,-4.486 -9.348,-4.486c-6.617,0 -12,5.383 -12,12c0,6.617 5.383,12 12,12c3.646,0 7.053,-1.635 9.348,-4.486c0.292,-0.363 0.725,-0.56 1.17,-0.56z"></path></g></g></g></svg>