<svg xmlns="http://www.w3.org/2000/svg" xmlns:xlink="http://www.w3.org/1999/xlink" viewBox="0,0,256,256" width="100px" height="100px" fill-rule="nonzero"><g fill="none" fill-rule="nonzero" stroke="none" stroke-width="1" stroke-linecap="butt" stroke-linejoin="miter" stroke-miterlimit="10" stroke-dasharray="" stroke-dashoffset="0" font-family="none" font-weight="none" font-size="none" text-anchor="none" style="mix-blend-mode: normal"><g transform="scale(2.56,2.56)"><path d="M10.5,90.5c-3.584,0 -6.5,-2.916 -6.5,-6.5v-6.799c0,-2.07 0.985,-4.012 2.646,-5.233l5.354,-4.192v-14.776c0,-22.056 17.944,-40 40,-40c22.056,0 40,17.944 40,40v14.776l5.354,4.19c1.66,1.223 2.646,3.164 2.646,5.234v6.8c0,3.584 -2.916,6.5 -6.5,6.5z" fill="#1d1d1b" opacity="0.35"></path><path d="M8.5,88.5c-3.584,0 -6.5,-2.916 -6.5,-6.5v-6.799c0,-2.07 0.985,-4.012 2.646,-5.233l5.354,-4.192v-14.776c0,-22.056 17.944,-40 40,-40c22.056,0 40,17.944 40,40v14.776l5.354,4.19c1.661,1.223 2.646,3.165 2.646,5.235v6.799c0,3.584 -2.916,6.5 -6.5,6.5z" fill="#f2f2f2"></path><path d="M8.5,75.5v1.5h83l-0.045,-1.52l-7.455,-5.98h-68z" fill="#e85555"></path><rect x="8.5" y="76" width="83" height="6" fill="#b5382f"></rect><path d="M83.5,51v19h-67v-19c0,-18.502 14.998,-33.5 33.5,-33.5v0c18.502,0 33.5,14.998 33.5,33.5z" fill="#ff9dcb"></path><path d="M23,70v-19c0,-14.912 12.088,-27 27,-27v0c14.912,0 27,12.088 27,27v19" fill="#914569"></path><path d="M28,70v-19c0,-12.15 9.85,-22 22,-22v0c12.15,0 22,9.85 22,22v19" fill="#ff9dcb"></path><path d="M33,70v-19c0,-9.389 7.611,-17 17,-17v0c9.389,0 17,7.611 17,17v19" fill="#914569"></path><path d="M38,70v-19c0,-6.627 5.373,-12 12,-12v0c6.627,0 12,5.373 12,12v19" fill="#ff9dcb"></path><path d="M43,70v-19c0,-3.866 3.134,-7 7,-7v0c3.866,0 7,3.134 7,7v19" fill="#914569"></path><path d="M91.5,83.5h-83c-0.828,0 -1.5,-0.672 -1.5,-1.5v-6.799c0,-0.493 0.242,-0.955 0.649,-1.235l7.351,-5.754v-17.212c0,-19.299 15.701,-35 35,-35c19.299,0 35,15.701 35,35v17.212l7.351,5.754c0.407,0.28 0.649,0.742 0.649,1.235v6.799c0,0.828 -0.672,1.5 -1.5,1.5zM10,80.5h80v-4.511l-7.351,-5.754c-0.407,-0.28 -0.649,-0.742 -0.649,-1.235v-18c0,-17.645 -14.355,-32 -32,-32c-17.645,0 -32,14.355 -32,32v18c0,0.493 -0.242,0.955 -0.649,1.235l-7.351,5.754z" fill="#40396e"></path></g></g></svg>