<svg xmlns="http://www.w3.org/2000/svg" xmlns:xlink="http://www.w3.org/1999/xlink" viewBox="0,0,256,256" width="100px" height="100px" fill-rule="nonzero"><g fill="none" fill-rule="nonzero" stroke="none" stroke-width="none" stroke-linecap="none" stroke-linejoin="none" stroke-miterlimit="10" stroke-dasharray="" stroke-dashoffset="0" font-family="none" font-weight="none" font-size="none" text-anchor="none" style="mix-blend-mode: normal"><g transform="scale(2.56,2.56)"><path d="M14.5,96c-1.936,0 -3.756,-0.853 -4.995,-2.34c-1.242,-1.495 -1.749,-3.44 -1.397,-5.342l5,-27.001c0.572,-3.081 3.259,-5.317 6.392,-5.317h7.5v-4.148c-1.599,-1.826 -3.14,-3.834 -4.595,-5.992c-2.228,-3.302 -3.405,-7.144 -3.405,-11.11v-19.25c0,-3.584 2.916,-6.5 6.5,-6.5l23.722,-1.96c3.722,0 5.34,1.645 6.958,4.173l12.133,17.054c1.296,1.705 1.442,3.855 1.62,5.732h0.567c3.584,0 6.5,2.916 6.5,6.5v15.501h7.5c3.133,0 5.82,2.236 6.392,5.316l5,27c0.352,1.903 -0.155,3.849 -1.392,5.337c-1.244,1.494 -3.064,2.347 -5,2.347z" fill="#000000" stroke="none" stroke-width="1" stroke-linecap="butt" stroke-linejoin="miter" opacity="0.35"></path><path d="M12.5,94c-1.936,0 -3.756,-0.853 -4.995,-2.34c-1.242,-1.495 -1.749,-3.44 -1.397,-5.342l5,-27.001c0.572,-3.081 3.259,-5.317 6.392,-5.317h7.5v-4.148c-1.599,-1.826 -3.14,-3.834 -4.595,-5.992c-2.228,-3.302 -3.405,-7.144 -3.405,-11.11v-19.25c0,-3.584 2.916,-6.5 6.5,-6.5h25c2.154,0 4.164,1.063 5.375,2.844l11.363,16.707c1.296,1.705 2.145,3.685 2.695,5.449h0.567c3.584,0 6.5,2.916 6.5,6.5v15.5h7.5c3.133,0 5.82,2.236 6.392,5.316l5,27c0.352,1.903 -0.155,3.849 -1.392,5.337c-1.244,1.494 -3.064,2.347 -5,2.347z" fill="#f2f2f2" stroke="none" stroke-width="1" stroke-linecap="butt" stroke-linejoin="miter"></path><path d="M17.955,62h13.045l3,-3h32l3,3h13l4.82,24.551h-74.144z" fill="#ff9dcb" stroke="none" stroke-width="1" stroke-linecap="butt" stroke-linejoin="miter"></path><path d="M71,78h-42c-1.657,0 -3,-1.343 -3,-3v0c0,-1.657 1.343,-3 3,-3h42c1.657,0 3,1.343 3,3v0c0,1.657 -1.343,3 -3,3z" fill="#40396e" stroke="none" stroke-width="1" stroke-linecap="butt" stroke-linejoin="miter"></path><path d="M33,40v38h34v-19v-19h-3l-3,-2l-2,2z" fill="#d9eeff" stroke="none" stroke-width="1" stroke-linecap="butt" stroke-linejoin="miter"></path><path d="M62.5,37.5c0,-2.479 -0.979,-5.188 -2.523,-7.127l-11.477,-16.873l-24.444,0.646c0,0 -0.629,16.683 0.944,21.944c0.848,1.593 4.186,7.057 9.169,11.89c1.359,1.319 2.331,2.975 2.729,4.826c0.964,4.482 3.509,12.602 9.102,11.025c5.462,-1.54 2.393,-8.101 0,-14.831c-1.222,-3.436 -1.415,-6.85 -2,-9h19l-2,-2" fill="#f7be36" stroke="none" stroke-width="1" stroke-linecap="butt" stroke-linejoin="miter"></path><path d="M82.5,60.5h-14v-22h-6c0,-2.479 -0.979,-6.188 -2.523,-8.127l-11.477,-16.873h-25v19.251c0,2.667 0.802,5.263 2.293,7.474c1.374,2.037 3.319,4.637 5.707,7.089v13.186h-14l-5,27h75z" fill="none" stroke="#40396e" stroke-width="3" stroke-linecap="round" stroke-linejoin="round"></path><rect x="33" y="75" width="34" height="3" fill="#40396e" stroke="none" stroke-width="1" stroke-linecap="butt" stroke-linejoin="miter" opacity="0.35"></rect><path d="M46.795,58.414c0.548,1.298 -0.073,2.8 -1.387,3.355c-1.314,0.555 -2.824,-0.047 -3.372,-1.345c-0.548,-1.298 4.211,-3.308 4.759,-2.01z" fill="#f7be36" stroke="none" stroke-width="1" stroke-linecap="butt" stroke-linejoin="miter"></path></g></g></svg>