<svg xmlns="http://www.w3.org/2000/svg" xmlns:xlink="http://www.w3.org/1999/xlink" viewBox="0,0,256,256" width="100px" height="100px" fill-rule="nonzero"><g fill="none" fill-rule="nonzero" stroke="none" stroke-width="none" stroke-linecap="none" stroke-linejoin="none" stroke-miterlimit="10" stroke-dasharray="" stroke-dashoffset="0" font-family="none" font-weight="none" font-size="none" text-anchor="none" style="mix-blend-mode: normal"><g transform="scale(2.56,2.56)"><path d="M11.5,94.253c-3.584,0 -6.5,-2.916 -6.5,-6.5v-27.253c0,-2.435 1.342,-4.645 3.501,-5.767c0.901,-0.476 1.947,-0.734 2.998,-0.734c1.205,0 2.369,0.328 3.391,0.954c0.74,0.272 0.852,0.767 2.675,0.999c4.548,-0.351 8.407,-9.198 12.142,-17.759c5.964,-13.674 13.387,-30.693 31.293,-30.693c16.756,0 23,11.654 23,19c0,7.57 -5.93,13.5 -13.5,13.5c-0.432,0 -0.859,-0.018 -1.281,-0.053c3.482,8.102 9.296,15.959 16.025,15.959c1.214,0 2.105,-0.779 3.94,-1.479c0.728,-0.281 1.514,-0.428 2.316,-0.428c1.323,0 2.598,0.397 3.688,1.148c1.762,1.216 2.812,3.216 2.812,5.353v27.253c0,3.584 -2.916,6.5 -6.5,6.5z" fill="#000000" stroke="none" stroke-width="1" stroke-linecap="butt" stroke-linejoin="miter" opacity="0.35"></path><path d="M9.5,92.253c-3.584,0 -6.5,-2.916 -6.5,-6.5v-27.253c0,-2.435 1.342,-4.645 3.501,-5.767c0.901,-0.476 1.947,-0.734 2.998,-0.734c1.205,0 2.369,0.328 3.391,0.954c0.74,0.272 2.852,0.767 4.675,0.999c4.548,-0.351 6.407,-9.198 10.142,-17.759c5.964,-13.674 13.387,-30.693 31.293,-30.693c16.756,0 23,11.654 23,19c0,7.57 -5.93,13.5 -13.5,13.5c-0.432,0 -0.859,-0.018 -1.281,-0.053c3.482,8.102 9.296,15.959 16.025,15.959c1.214,0 2.105,-0.779 3.94,-1.479c0.728,-0.281 1.514,-0.428 2.316,-0.428c1.323,0 2.598,0.397 3.688,1.148c1.762,1.216 2.812,3.216 2.812,5.353v27.253c0,3.584 -2.916,6.5 -6.5,6.5z" fill="#f2f2f2" stroke="none" stroke-width="1" stroke-linecap="butt" stroke-linejoin="miter"></path><path d="M23.869,56.79c0,0 9.039,-13.253 9.573,-17.124c0.534,-3.871 9.983,-23.904 17.258,-25.888c0,0 -0.809,7.449 7.938,14.174c0,0 2.305,20.654 16.736,30.051v6.792h-52.398z" fill="#914569" stroke="none" stroke-width="1" stroke-linecap="butt" stroke-linejoin="miter"></path><path d="M9,81l0.004,-22.434c1.527,1.068 4.637,1.961 7.424,1.961c4.045,0 6.663,-1.879 8.144,-3.449c1.481,1.57 4.098,3.449 8.143,3.449c4.045,0 6.663,-1.879 8.144,-3.449c1.481,1.57 4.099,3.449 8.144,3.449c4.045,0 6.663,-1.879 8.143,-3.449c1.481,1.57 4.099,3.449 8.144,3.449c4.045,0 6.663,-1.879 8.144,-3.449c1.481,1.57 4.098,3.449 8.143,3.449c2.786,0 5.896,-0.892 7.423,-1.96v22.433z" fill="#ffd3e7" stroke="none" stroke-width="1" stroke-linecap="butt" stroke-linejoin="miter"></path><path d="M9,85.629l0.004,-18.434c1.527,1.068 4.637,1.961 7.424,1.961c4.045,0 6.663,-1.879 8.144,-3.449c1.481,1.57 4.098,3.449 8.143,3.449c4.045,0 6.663,-1.879 8.144,-3.449c1.481,1.57 4.099,3.449 8.144,3.449c4.045,0 6.663,-1.879 8.143,-3.449c1.481,1.57 4.099,3.449 8.144,3.449c4.045,0 6.663,-1.879 8.144,-3.449c1.481,1.57 4.098,3.449 8.143,3.449c2.786,0 5.896,-0.892 7.423,-1.96v18.433z" fill="#ff9dcb" stroke="none" stroke-width="1" stroke-linecap="butt" stroke-linejoin="miter"></path><path d="M70.584,14.888c0,0 -4.584,-2.888 -10.584,-2.888c-6,0 -18.27,5.989 -25.146,27.427c0,0 8.494,-12.809 15.674,-14.764c0,0 3.64,4.955 8.848,2.73l4.624,2.607l4.5,1.5l5.5,-2.5l1,-7z" fill="#ff9dcb" stroke="none" stroke-width="1" stroke-linecap="butt" stroke-linejoin="miter"></path><path d="M51.978,36.326c0,0 0.809,9.708 5.798,15.91" fill="none" stroke="#ff9dcb" stroke-width="3" stroke-linecap="round" stroke-linejoin="miter"></path><path d="M62.45,22.901c-0.011,-0.029 -0.023,-0.047 -0.023,-0.047c0,0 0.008,0.018 0.023,0.047z" fill="#ffd3e7" stroke="none" stroke-width="1" stroke-linecap="butt" stroke-linejoin="miter"></path><path d="M73.498,29.228l0.657,-1.313l0.653,-4.57l-1.729,-3.322c0,0 1.281,6.27 -3.91,6.27c-4.842,0 -6.336,-3.676 -6.539,-4.079c0.087,0.225 -3.202,2.798 -6.674,2.798c-2.562,0 -3.708,-3.438 -3.708,-3.438c-4.218,0.501 -13.584,5.258 -17.161,17.163l0.352,-0.156c2.037,-2.888 9.031,-12.267 15.09,-13.917c0,0 3.64,4.955 8.848,2.73l0.122,0.069l0.434,-0.294l4.067,2.831l6.382,0.645z" fill="#ffd3e7" stroke="none" stroke-width="1" stroke-linecap="butt" stroke-linejoin="miter"></path><path d="M83.244,60.407c-14.683,0 -23.581,-20.575 -25.446,-30.958c1.97,-0.653 3.702,-1.949 3.702,-1.949c0,0 2,4 7,4c4,0 7,-3 7,-7c0,-4 -3.433,-12.5 -16.5,-12.5c-25.5,0 -22.5,48.463 -41.721,48.463c-2.104,-0.225 -6.477,-1.051 -7.779,-1.963v27.253h80v-27.253c0,0 -3,1.907 -6.256,1.907z" fill="none" stroke="#40396e" stroke-width="3" stroke-linecap="round" stroke-linejoin="round"></path></g></g></svg>